<svg xmlns="http://www.w3.org/2000/svg" version="1.1" xmlns:xlink="http://www.w3.org/1999/xlink" xmlns:svgjs="http://svgjs.dev/svgjs" viewBox="0 0 800 800"><defs><filter id="ssspot-filter" x="-20%" y="-20%" width="140%" height="140%" filterUnits="objectBoundingBox" primitiveUnits="userSpaceOnUse" color-interpolation-filters="sRGB">
	<feTurbulence type="turbulence" baseFrequency="0.022 0.218" numOctaves="2" seed="279" stitchTiles="stitch" x="0%" y="0%" width="100%" height="100%" result="turbulence"></feTurbulence>
	<feGaussianBlur stdDeviation="0 3" x="0%" y="0%" width="100%" height="100%" in="turbulence" edgeMode="duplicate" result="blur"></feGaussianBlur>
	<feDisplacementMap in="SourceGraphic" in2="blur" scale="32" xChannelSelector="R" yChannelSelector="B" x="0%" y="0%" width="100%" height="100%" result="displacementMap"></feDisplacementMap>
</filter></defs><rect width="100%" height="100%" fill="hsl(32, 100%, 89%)"></rect><g fill="hsl(105, 69%, 30%)" filter="url(#ssspot-filter)"><circle r="9.923684273410672" cx="339.91033463959155" cy="319.4868167493413" opacity="0.8717136844884404"></circle><circle r="5.805253068651541" cx="368.02612761489837" cy="191.72170629822529" opacity="0.7220353241736206"></circle><circle r="8.446595899824713" cx="652.1572299272167" cy="93.84532834807368" opacity="0.1988305117433371"></circle><circle r="6.895821477976655" cx="259.8219626462025" cy="227.59425931412375" opacity="0.3786612856978928"></circle><circle r="12.760313228084307" cx="145.47432810873423" cy="751.004960207828" opacity="0.33729920659946"></circle><circle r="5.811393619273831" cx="243.21390497130392" cy="280.7755728596249" opacity="0.9663995251999176"></circle><circle r="5.606287339322225" cx="507.4475056145406" cy="179.54663655281584" opacity="0.24080416997343357"></circle><circle r="4.220670540368806" cx="36.483567590548894" cy="495.31534266929833" opacity="0.4123315104905979"></circle><circle r="8.458706535564243" cx="570.61993675758" cy="223.86076886579949" opacity="0.15511523918560272"></circle><circle r="9.117299953040204" cx="266.5929384751649" cy="139.27439393255386" opacity="0.41015968416885007"></circle><circle r="5.060319383252237" cx="184.17252273168017" cy="80.7308453302071" opacity="0.9175516170517297"></circle><circle r="5.999983688025738" cx="253.27623678157929" cy="548.0362359539776" opacity="0.6110019308760704"></circle><circle r="8.762407438083955" cx="688.6914542228499" cy="390.35278224811117" opacity="0.4070890596383301"></circle><circle r="5.812535374728986" cx="783.6717865854022" cy="397.6739258229137" opacity="0.8079435032726217"></circle><circle r="8.76942963947829" cx="597.1695068085576" cy="396.3021261129631" opacity="0.8314219866164717"></circle><circle r="5.585620229428482" cx="138.45001517631377" cy="264.4493747510532" opacity="0.9462843602883815"></circle><circle r="5.354180994431345" cx="600.1093861189249" cy="269.0295737637197" opacity="0.3169488687917342"></circle><circle r="13.265564038346783" cx="188.592450972876" cy="720.2500526524818" opacity="0.8265143711787104"></circle><circle r="9.007435660937567" cx="563.1616104944143" cy="763.3953823940035" opacity="0.6213684553126743"></circle><circle r="6.341609077242799" cx="740.8003270921537" cy="322.1770713809882" opacity="0.8117436913170031"></circle><circle r="6.037496083320274" cx="412.4185120982557" cy="311.3258993188956" opacity="0.968567621217431"></circle><circle r="4.60900522213117" cx="83.28877181999762" cy="761.8496434951146" opacity="0.23235772089405124"></circle><circle r="4.572923903930382" cx="442.7800286558564" cy="40.045235330637205" opacity="0.8505290935893831"></circle><circle r="9.459577306310571" cx="84.53794081769684" cy="284.26828490165985" opacity="0.6573642922623388"></circle><circle r="6.81561473016356" cx="398.76020579823125" cy="221.3548351914674" opacity="0.5464614539012718"></circle><circle r="6.45633779711262" cx="231.10323376645667" cy="687.3260550906513" opacity="0.46489682984218506"></circle><circle r="5.5432629196781775" cx="23.701807888376624" cy="144.35260666521452" opacity="0.31079913231957174"></circle><circle r="6.301072487859997" cx="552.441722569237" cy="537.7027455449856" opacity="0.8846435980139287"></circle><circle r="5.573656910880112" cx="665.357156389145" cy="352.1512063775879" opacity="0.19028173816178767"></circle><circle r="4.465255906564073" cx="784.6892427201379" cy="735.6510472686866" opacity="0.4239312361888842"></circle><circle r="8.12473435294682" cx="502.9114539521981" cy="93.59300732601228" opacity="0.1922159132660544"></circle><circle r="5.792215801036615" cx="293.6650687943797" cy="262.11623616986117" opacity="0.9906368734549286"></circle><circle r="5.084904026955763" cx="705.4771566758463" cy="342.8845314245539" opacity="0.7298388886335373"></circle><circle r="6.032660514759433" cx="594.7484956121323" cy="181.04088546829118" opacity="0.5126167488160855"></circle><circle r="9.385138560734552" cx="67.09533673420714" cy="683.4186273959469" opacity="0.9035170961075887"></circle><circle r="8.373307895330303" cx="24.57503550486067" cy="27.78964669756232" opacity="0.8755940195396866"></circle><circle r="3.872634565563911" cx="715.9198386760727" cy="736.0652859079249" opacity="0.8987266288172193"></circle><circle r="5.7585570425611134" cx="346.9524118911005" cy="270.572609437495" opacity="0.7767656071246315"></circle><circle r="11.759028828470129" cx="549.9510350268218" cy="92.32819183475786" opacity="0.42617945487409203"></circle><circle r="4.953977717552853" cx="396.83876037061003" cy="265.91110563887315" opacity="0.5357146773694687"></circle><circle r="10.089250986748212" cx="174.13061279285157" cy="498.80700597903126" opacity="0.8244898623467866"></circle><circle r="6.802295693939543" cx="712.2135004942422" cy="529.473608949297" opacity="0.8576836570526665"></circle><circle r="4.431584185992549" cx="408.4711863822527" cy="19.521405909400407" opacity="0.6024122525639575"></circle><circle r="5.563974417489055" cx="786.7452341307365" cy="697.0612851152611" opacity="0.977812349065163"></circle><circle r="5.048577090816637" cx="203.26860122182893" cy="655.2195670753355" opacity="0.8791071501851645"></circle><circle r="7.374354687906726" cx="289.8363923278877" cy="178.4877095975243" opacity="0.34594169262483354"></circle><circle r="8.566784723572486" cx="674.7707679236519" cy="22.29956964258705" opacity="0.28610698922882727"></circle><circle r="7.177778492596311" cx="773.9439590453103" cy="662.5568176007467" opacity="0.3515912978737322"></circle><circle r="6.428322818209077" cx="722.2540921277997" cy="671.627092120288" opacity="0.25325900834821635"></circle><circle r="4.298293214637639" cx="260.56299815991093" cy="39.20246081533288" opacity="0.3467150911674266"></circle><circle r="5.95776384401027" cx="132.31310938592242" cy="697.0030261506216" opacity="0.7766912396877964"></circle><circle r="6.026106542354012" cx="435.2743567409636" cy="65.54985015099442" opacity="0.7633213418028255"></circle><circle r="4.882685581648142" cx="466.14044175830907" cy="272.44646189971314" opacity="0.8459738005787191"></circle><circle r="7.7167777830710165" cx="750.8081121027632" cy="559.7544135028731" opacity="0.8793087403208046"></circle><circle r="10.7328610140337" cx="60.30250287606437" cy="371.7911327282103" opacity="0.3460543314890392"></circle><circle r="5.619919155566386" cx="336.0894136587616" cy="58.671460249862896" opacity="0.5211938537928281"></circle><circle r="6.7372790739067945" cx="733.591721029792" cy="601.4237697881034" opacity="0.3572195832195779"></circle><circle r="10.352988215202588" cx="516.9848017509235" cy="683.823440683611" opacity="0.6460597356486686"></circle><circle r="6.319282533672908" cx="156.94645003097855" cy="664.1576181505685" opacity="0.15809137797283018"></circle><circle r="8.495842506885467" cx="171.45390209591787" cy="163.05298993758964" opacity="0.9896764207500341"></circle><circle r="7.145293636523493" cx="482.88489127390903" cy="52.136899361154825" opacity="0.732889658209103"></circle><circle r="9.273423964036995" cx="312.3467825803736" cy="500.7783096474552" opacity="0.4353122543918925"></circle><circle r="4.872251769612152" cx="73.73201062632123" cy="592.4216394424191" opacity="0.47399771206299746"></circle><circle r="5.797464615727887" cx="378.67666347686725" cy="22.39074955197762" opacity="0.7895458633043805"></circle><circle r="9.021298176354655" cx="345.5731163502337" cy="480.2638453059698" opacity="0.9385006453853294"></circle><circle r="6.483801015270359" cx="88.47389441754507" cy="530.1800615681093" opacity="0.3189284857543544"></circle><circle r="7.921574659288213" cx="414.10614427357535" cy="384.92421203743726" opacity="0.9115788508921961"></circle><circle r="6.2258326055984785" cx="600.609282892513" cy="322.4072459056941" opacity="0.4000102665379498"></circle><circle r="7.835993856618638" cx="18.748533201462084" cy="447.29114327654827" opacity="0.8181667146834593"></circle><circle r="6.4440060783728645" cx="364.2577397551591" cy="522.1988108170824" opacity="0.9321566462261471"></circle><circle r="5.979990294854257" cx="688.8472841352063" cy="725.2670186206228" opacity="0.3388401942082685"></circle><circle r="11.275148056734903" cx="374.1163479248422" cy="745.5597421418494" opacity="0.3350235339585852"></circle><circle r="5.776500188250972" cx="439.44398737290584" cy="12.815115610964842" opacity="0.6468397525687762"></circle><circle r="9.902598645753013" cx="693.8779261896796" cy="447.56783942625594" opacity="0.6734257102408556"></circle><circle r="7.8905541657479255" cx="360.0245348329524" cy="621.1065227482708" opacity="0.8717984801494567"></circle><circle r="7.838719563959508" cx="601.4473521744962" cy="487.69914256204777" opacity="0.7472881010692883"></circle><circle r="9.043914605910675" cx="208.542837048141" cy="196.29130125448458" opacity="0.38766272390269374"></circle><circle r="6.6528411586813565" cx="95.76778474003807" cy="452.73527546418165" opacity="0.8837263659181392"></circle><circle r="7.518126343752962" cx="595.2156666748876" cy="128.69066337173678" opacity="0.6885953214412224"></circle><circle r="3.033468821804795" cx="781.2198192571516" cy="762.3733528868537" opacity="0.9947078472499549"></circle><circle r="8.653236104859232" cx="770.576372157777" cy="184.33380012626552" opacity="0.6857040340062851"></circle><circle r="8.765585989570816" cx="534.9646205042768" cy="600.965994752662" opacity="0.4793697813659169"></circle><circle r="6.476030933184228" cx="226.65381137727104" cy="104.98128872166433" opacity="0.14320696302787955"></circle><circle r="14.658328689200992" cx="26.16437453543376" cy="644.5283201957561" opacity="0.7192921076143304"></circle><circle r="6.05751106759933" cx="135.71107748261358" cy="473.6114186998833" opacity="0.6747345049495387"></circle><circle r="5.207036978401165" cx="309.6625829756527" cy="69.48324606455654" opacity="0.44412619299387956"></circle><circle r="9.113961975754147" cx="23.251480768608875" cy="326.54343558471095" opacity="0.17665971118333462"></circle><circle r="5.204998367412553" cx="320.8987193096399" cy="544.543557815121" opacity="0.6084548345930944"></circle><circle r="8.899800315532076" cx="746.0960699020284" cy="753.0104733528694" opacity="0.4060502726347137"></circle><circle r="5.588414448575605" cx="269.3593729211641" cy="273.49631309439764" opacity="0.5757958338586222"></circle><circle r="5.192598243507362" cx="774.9559653618694" cy="787.2037278722227" opacity="0.5308287964373284"></circle><circle r="5.878072525373066" cx="96.29208067041941" cy="110.66618704190076" opacity="0.6467653295734516"></circle><circle r="7.321366574454256" cx="350.1161487720723" cy="406.01904541529444" opacity="0.6813416227076139"></circle><circle r="5.212533467992738" cx="617.7889614972441" cy="777.3847488955556" opacity="0.26526947222811076"></circle><circle r="8.008747168926487" cx="342.6992917210102" cy="19.131262606075868" opacity="0.6491861101535206"></circle><circle r="6.952867874954755" cx="531.7028341518266" cy="639.6101766795485" opacity="0.44512891312590785"></circle><circle r="9.805875867550617" cx="76.47806233515485" cy="330.2567951490196" opacity="0.9768763555983525"></circle><circle r="5.617672032609885" cx="425.4406260231795" cy="464.8097507923154" opacity="0.4157743060281772"></circle><circle r="5.888920507446736" cx="706.1237878805532" cy="131.80391977424736" opacity="0.9950463390147309"></circle><circle r="6.016756198851229" cx="103.54393149260345" cy="22.49465183861044" opacity="0.5400014707823768"></circle><circle r="6.30166065905526" cx="532.7314696900164" cy="213.77110450502045" opacity="0.12349213897170358"></circle><circle r="7.47841930517137" cx="333.45011651219176" cy="661.8229462601867" opacity="0.7074686320033153"></circle><circle r="4.2179494549932794" cx="753.7720875331539" cy="463.8653176922609" opacity="0.6637952165198227"></circle><circle r="6.640518300813256" cx="725.8559782974812" cy="784.7752479680495" opacity="0.40915979013706383"></circle><circle r="6.980754408969748" cx="727.0638510675466" cy="275.8901809677169" opacity="0.48482518028063715"></circle><circle r="7.349305393501875" cx="548.4769106281665" cy="715.1450096232686" opacity="0.5575436477064669"></circle><circle r="4.777028951232127" cx="505.9311818609894" cy="270.4067697909209" opacity="0.379980611401734"></circle><circle r="5.814955544933999" cx="780.4289604273534" cy="579.4581324062264" opacity="0.8847971099606616"></circle><circle r="4.063074096465439" cx="120.02762820040253" cy="542.714137650131" opacity="0.2653584911757615"></circle><circle r="9.864643133057864" cx="556.9207039388872" cy="335.4718740056859" opacity="0.41578349275122484"></circle><circle r="8.014792520139677" cx="479.86801821199674" cy="716.3096098609312" opacity="0.10071585551703675"></circle><circle r="8.48503413196222" cx="41.89374198164565" cy="68.42134927664685" opacity="0.13006633482651186"></circle><circle r="6.806545310413339" cx="513.4773486054249" cy="36.98057582079793" opacity="0.8757635135314926"></circle><circle r="7.430620425808667" cx="278.4776423392304" cy="314.65160900019606" opacity="0.22849027740370964"></circle><circle r="9.437276091259815" cx="103.48191603657689" cy="242.8634011799367" opacity="0.5292652714784203"></circle><circle r="6.0820748168360375" cx="420.56414531256826" cy="134.44295818287245" opacity="0.3932111522240026"></circle><circle r="7.755932816424703" cx="681.2129798385278" cy="299.9103970010311" opacity="0.4734308527299753"></circle><circle r="6.369320797034861" cx="69.73463017956455" cy="497.6485835756036" opacity="0.2713156328908781"></circle><circle r="8.979587429890707" cx="779.4396059841469" cy="44.853646581900605" opacity="0.1691637102435494"></circle><circle r="5.025176572444907" cx="642.5385347141296" cy="655.5977327978571" opacity="0.7608980299412846"></circle><circle r="14.031223587990514" cx="486.2958282725984" cy="441.3260206298351" opacity="0.6126917863441554"></circle><circle r="8.115713741187793" cx="710.773361721041" cy="642.7936526443101" opacity="0.10897710705717974"></circle><circle r="8.059151021438549" cx="307.0802980937201" cy="404.9364296067269" opacity="0.6122556389795887"></circle><circle r="3.853437827860103" cx="58.235743527568395" cy="747.1461484837821" opacity="0.9635628702028237"></circle><circle r="10.436480464495009" cx="612.0801095333901" cy="79.33913856741474" opacity="0.12441450795204044"></circle><circle r="4.615086140341517" cx="217.76278516229547" cy="539.0261433190122" opacity="0.7546974139262036"></circle><circle r="5.783888927153732" cx="185.34712099773776" cy="781.0006635331009" opacity="0.11251845043860478"></circle><circle r="11.687771554992139" cx="498.2090412502281" cy="502.6325795357874" opacity="0.41514349505289316"></circle><circle r="10.063003545662205" cx="189.99895856258888" cy="323.96032229834066" opacity="0.5790725642282597"></circle><circle r="6.51471498594627" cx="232.73143258611896" cy="347.81438046450785" opacity="0.7823548652403152"></circle><circle r="7.884801088516624" cx="305.1392094040619" cy="107.83609774526994" opacity="0.9502440031963303"></circle><circle r="6.383892742662089" cx="619.7414796380567" cy="450.5165028685009" opacity="0.6700136533995769"></circle><circle r="6.145726378537516" cx="783.9733938039192" cy="530.9825588213278" opacity="0.21363307791894565"></circle><circle r="5.323029531152127" cx="106.617759185375" cy="500.0524004123266" opacity="0.5674092459142726"></circle><circle r="4.35568372072626" cx="153.89579656377632" cy="94.1571237038976" opacity="0.23225618135278572"></circle><circle r="3.793175681711942" cx="77.02316322653382" cy="88.16921948345879" opacity="0.3141024377496838"></circle><circle r="7.982150512653137" cx="543.8107737058691" cy="251.59399324122992" opacity="0.9382476250664225"></circle><circle r="7.839208188712633" cx="271.23369991698223" cy="374.6638730629829" opacity="0.25714541766500687"></circle><circle r="5.7872927302871435" cx="380.7592416703155" cy="56.210146624745455" opacity="0.5011751335976092"></circle><circle r="10.007229160454896" cx="615.2113705554465" cy="219.55069710365083" opacity="0.6087068565894243"></circle><circle r="6.807990221591018" cx="411.7047700111351" cy="179.95682770728004" opacity="0.16084824051627655"></circle><circle r="7.762945066098259" cx="694.2751195977147" cy="487.17512951371157" opacity="0.25217149947541856"></circle><circle r="7.3936825813275115" cx="721.6931246761371" cy="403.5223752857633" opacity="0.6975279543717365"></circle><circle r="6.15642550489571" cx="273.9760788250743" cy="513.0641166965228" opacity="0.7146277364503064"></circle><circle r="8.644636429532095" cx="446.61806852512905" cy="151.28994378782625" opacity="0.39080661308170306"></circle><circle r="4.085242524801807" cx="74.77360103393353" cy="37.242983355973166" opacity="0.32275433542205634"></circle><circle r="4.234498179776105" cx="283.3633682729716" cy="69.28534957042149" opacity="0.4276561642836184"></circle><circle r="5.06013111417688" cx="263.4882094520427" cy="99.19681280809283" opacity="0.21894875511854675"></circle><circle r="11.222053495205138" cx="422.5126824924789" cy="608.2345432477588" opacity="0.5272083241580727"></circle><circle r="8.469503174513523" cx="134.6655998950283" cy="140.5199802108281" opacity="0.36135093875059165"></circle><circle r="6.494340851191922" cx="149.08126894018568" cy="326.391345731878" opacity="0.8417468227994479"></circle><circle r="4.7412391738972985" cx="224.86365025786202" cy="11.810253902181792" opacity="0.7750862404192908"></circle><circle r="5.233162048569955" cx="436.6658695731687" cy="359.8016154607349" opacity="0.5117448225440471"></circle><circle r="7.775291184841497" cx="58.26952645922088" cy="419.51865993529276" opacity="0.7984123239880407"></circle><circle r="5.745062867182151" cx="441.137772457969" cy="419.225230261099" opacity="0.6766858492639248"></circle><circle r="7.317395991684338" cx="779.8659270950517" cy="220.25947489440114" opacity="0.36613671102995615"></circle><circle r="7.5598143600818695" cx="332.8136346236297" cy="364.12699715901334" opacity="0.8931850344797356"></circle><circle r="5.988774768535638" cx="108.99141883496631" cy="412.85552341395305" opacity="0.16192877399099273"></circle><circle r="7.386716053671743" cx="289.8331161806302" cy="453.96194231788763" opacity="0.8421099107790521"></circle><circle r="9.59107468972099" cx="691.481724234345" cy="92.02084625744133" opacity="0.3383398999733537"></circle><circle r="5.6604316139324045" cx="229.14620555996743" cy="750.6565298800665" opacity="0.9012910675679339"></circle><circle r="5.581239171553184" cx="109.52849707859542" cy="580.4315415461994" opacity="0.5064565735439519"></circle><circle r="9.561420136303994" cx="34.25460821944282" cy="182.56632715633611" opacity="0.9789828590264842"></circle><circle r="4.3552771368571195" cx="276.8403892804184" cy="10.174943906015754" opacity="0.8655952205828222"></circle><circle r="6.186526580197173" cx="660.9886317941841" cy="629.4608375719578" opacity="0.9023983472793841"></circle><circle r="8.872047370188904" cx="301.33044650961597" cy="27.521459656593635" opacity="0.5310467500952992"></circle><circle r="5.481008386188053" cx="488.6139017588862" cy="200.67021011974924" opacity="0.5269063396936623"></circle><circle r="5.601926174211142" cx="618.8054898786835" cy="621.1732215274309" opacity="0.1566243292718585"></circle><circle r="6.1182583241551685" cx="74.14052926418486" cy="215.4500420501955" opacity="0.6267799805958079"></circle><circle r="6.733298215447376" cx="167.18121917164643" cy="373.8642145446717" opacity="0.8440250343801547"></circle><circle r="6.885769758837784" cx="209.63465094831173" cy="591.2645772086313" opacity="0.51091965538085"></circle><circle r="6.631478967286985" cx="183.0956984718217" cy="543.1392562608336" opacity="0.6201458970882627"></circle><circle r="6.631870129415685" cx="389.54974356824414" cy="131.4490809783202" opacity="0.6158567526010246"></circle><circle r="6.439056410711575" cx="473.17010068139007" cy="314.68658784875663" opacity="0.15233488471092793"></circle><circle r="6.970221021028289" cx="628.250667391807" cy="24.375086969720442" opacity="0.1936688557905445"></circle><circle r="9.086085772548707" cx="243.6873220746976" cy="473.95265082659773" opacity="0.18336161155589548"></circle><circle r="8.905502344571065" cx="509.1930697686423" cy="561.7512826489902" opacity="0.388614062138521"></circle><circle r="6.695870760217629" cx="444.3789938062041" cy="323.24266958746665" opacity="0.23095342723893664"></circle><circle r="7.194037008681678" cx="112.52558994309807" cy="369.79088474644124" opacity="0.6504715437236565"></circle><circle r="7.969464783509775" cx="23.473831521564236" cy="228.81547716442984" opacity="0.40815591135526064"></circle><circle r="5.77457147826407" cx="518.4935097007468" cy="137.84154472288358" opacity="0.25024467339488826"></circle><circle r="7.733969011113471" cx="471.6238032246355" cy="672.6848443855414" opacity="0.2135900082680744"></circle><circle r="6.0636191618389095" cx="664.7980036953368" cy="580.5275339835762" opacity="0.7519188553411"></circle><circle r="6.931353026016729" cx="586.3941157951709" cy="646.7033674880711" opacity="0.7006768639445757"></circle><circle r="4.4164605846884575" cx="590.2916575703731" cy="714.3116653624494" opacity="0.48516567902189434"></circle><circle r="10.79763294361782" cx="436.10661936659557" cy="731.8695008684756" opacity="0.9168011726958164"></circle><circle r="6.437751716778016" cx="646.7942352898349" cy="139.72478638505086" opacity="0.9034166854538744"></circle><circle r="6.08461612347004" cx="552.7014872665035" cy="667.3051321040367" opacity="0.8133502742680994"></circle><circle r="9.561920522174477" cx="761.318391382586" cy="364.1828254696728" opacity="0.4560852502524234"></circle><circle r="8.497999018251704" cx="377.7971433363563" cy="695.2326285577215" opacity="0.1925392095654932"></circle><circle r="5.4272408420142915" cx="303.12607905807454" cy="576.8850179898188" opacity="0.9204061552811483"></circle><circle r="8.2391563380172" cx="772.9723065826616" cy="126.72768136118853" opacity="0.12921460268515617"></circle><circle r="7.247706385765786" cx="642.7766410038637" cy="391.612636061421" opacity="0.595485011496139"></circle><circle r="5.52204217369524" cx="651.555372303205" cy="176.91265415215082" opacity="0.8145419165068707"></circle><circle r="6.038374498906537" cx="447.89513479416513" cy="224.57235700352683" opacity="0.63275310450314"></circle><circle r="10.767690818387884" cx="19.39805369200253" cy="390.0846260661493" opacity="0.23312678221802025"></circle><circle r="9.607171705135695" cx="777.4418672733627" cy="259.21604861382116" opacity="0.8032400745848364"></circle><circle r="7.4025366858188395" cx="122.19260609652719" cy="87.23625549953388" opacity="0.43323592639257935"></circle><circle r="9.922271923427363" cx="547.7587582764683" cy="24.530605590534794" opacity="0.8443195141187739"></circle><circle r="7.48020196929204" cx="58.87844646140179" cy="462.34841682783133" opacity="0.7302795573214897"></circle><circle r="8.59580666575215" cx="95.1391752432891" cy="723.7426894038434" opacity="0.243181635300062"></circle><circle r="5.949784882205945" cx="70.74703112394772" cy="557.6138111731377" opacity="0.8280113584012403"></circle><circle r="9.704973417861634" cx="104.07905344538437" cy="647.4061085530035" opacity="0.5500360503732215"></circle><circle r="5.833888218247607" cx="748.081484518012" cy="687.9639366976346" opacity="0.8788466517388747"></circle><circle r="5.957882855716093" cx="11.845299718782412" cy="505.1108653241572" opacity="0.4859594560476801"></circle><circle r="6.2488612899049665" cx="653.851217391219" cy="496.94374039169276" opacity="0.6780304645633456"></circle><circle r="7.352744756586782" cx="357.4519885971712" cy="152.51012292647593" opacity="0.35325751008474227"></circle><circle r="8.493650556272964" cx="146.5949474032747" cy="534.574855327259" opacity="0.17169399733946977"></circle><circle r="8.642648026014424" cx="285.62382159487026" cy="708.3537271777387" opacity="0.6848608494195594"></circle><circle r="9.233276296063915" cx="550.1454826457723" cy="459.4526411004189" opacity="0.9639502036338776"></circle><circle r="4.939502523175697" cx="322.68585438629054" cy="139.69233922053715" opacity="0.759899061119373"></circle><circle r="11.611582061228454" cx="35.943191296309905" cy="274.9394204827176" opacity="0.9195589290135865"></circle><circle r="8.823513336872296" cx="482.6771772958609" cy="624.023507722789" opacity="0.9389050151799865"></circle><circle r="7.070134101301992" cx="682.9557692530553" cy="687.5745188115764" opacity="0.8468571869759087"></circle><circle r="7.366822400258747" cx="751.3974892915052" cy="523.0305921169518" opacity="0.7793413486698824"></circle><circle r="6.280303854945991" cx="735.7590709429477" cy="19.93157456716269" opacity="0.8525598859456426"></circle><circle r="7.227120265573979" cx="632.4343373141203" cy="337.1209115760686" opacity="0.95345254934989"></circle><circle r="7.113638893628889" cx="628.028548297238" cy="712.7203581095714" opacity="0.3932306834253334"></circle><circle r="11.434671628890193" cx="739.5346794281452" cy="80.69401049251728" opacity="0.8523454631752578"></circle><circle r="9.322650060498244" cx="418.1250794820066" cy="668.2146135752721" opacity="0.8908491956087599"></circle><circle r="5.802602962639639" cx="167.79302924862182" cy="589.795799409738" opacity="0.22702206746933484"></circle><circle r="5.200383004919681" cx="662.0568687316177" cy="782.0417076860186" opacity="0.28753201167638176"></circle><circle r="4.212106251514706" cx="84.41056864676902" cy="617.9343392192591" opacity="0.16439930127104038"></circle><circle r="4.681591007005635" cx="761.2231841726734" cy="717.3721394255028" opacity="0.6175200541120832"></circle><circle r="9.048856535315933" cx="415.0504336809438" cy="775.2357939113335" opacity="0.2530932562283862"></circle><circle r="6.591254962112657" cx="359.8939481564407" cy="784.7087599199162" opacity="0.3247648452224994"></circle><circle r="9.170768844361582" cx="507.23383506540097" cy="751.1225312996709" opacity="0.352736623655191"></circle><circle r="5.520567719015839" cx="788.4617822148201" cy="622.7762211414798" opacity="0.3930056057309178"></circle><circle r="8.779081700238818" cx="26.6542029554343" cy="103.32097082649567" opacity="0.7744220508495566"></circle><circle r="9.744851112690839" cx="591.0550396617193" cy="543.0269999332457" opacity="0.9919132653602531"></circle><circle r="6.368523298751529" cx="784.7749728003886" cy="447.589062059658" opacity="0.38106456324016336"></circle><circle r="4.1585369983769835" cx="216.71789210231356" cy="68.1284398467837" opacity="0.4016103164766506"></circle><circle r="6.997931950506192" cx="391.9534503446756" cy="493.832449791985" opacity="0.7132466517893881"></circle><circle r="3.818540911572036" cx="725.5202026598106" cy="504.62258427767483" opacity="0.182695426726404"></circle><circle r="6.8044617356374655" cx="322.66455030886044" cy="193.9678014806455" opacity="0.2500100376015537"></circle><circle r="8.58123411430461" cx="642.7137222974113" cy="268.7309723230955" opacity="0.5275855726682371"></circle><circle r="6.057947372963747" cx="235.50680657130994" cy="615.9909214251779" opacity="0.4888934167660207"></circle><circle r="5.231254038638289" cx="601.2025707154347" cy="747.2636549772144" opacity="0.8466071429556182"></circle><circle r="7.863857325309954" cx="665.0611167560353" cy="211.98805915552379" opacity="0.48632075351209336"></circle><circle r="5.214350681237509" cx="783.3433998341641" cy="490.64584642733337" opacity="0.9601260514116016"></circle><circle r="8.741726208218736" cx="326.1908707952082" cy="448.66511045568694" opacity="0.651153451242629"></circle><circle r="6.432128585880664" cx="170.8646479720215" cy="627.1808363581166" opacity="0.5949257949075697"></circle><circle r="6.2436867657762285" cx="433.9513097005212" cy="102.4091527801253" opacity="0.40988206509887415"></circle><circle r="8.456718299590584" cx="272.61984424159834" cy="747.4187653883253" opacity="0.3218006425746404"></circle><circle r="7.557491762371912" cx="625.0097333706511" cy="525.589591798345" opacity="0.2683925184832125"></circle><circle r="6.463984980509764" cx="641.6621491958205" cy="684.6565683889459" opacity="0.4727375355882848"></circle><circle r="6.765046357217904" cx="534.1382949573824" cy="786.0296932232058" opacity="0.6095594048840154"></circle><circle r="5.183762468218084" cx="708.9818298293501" cy="208.26594725585807" opacity="0.9354143429781919"></circle><circle r="10.696412475392606" cx="436.75785004363445" cy="515.6089511271814" opacity="0.9077528860433589"></circle><circle r="7.603123359650246" cx="141.97940393529623" cy="28.884323202214965" opacity="0.8727317108677549"></circle><circle r="4.936406377072685" cx="676.0851402181082" cy="535.4729865670865" opacity="0.7048141631006912"></circle><circle r="5.611192984262141" cx="117.26815305640773" cy="311.14534984010993" opacity="0.43373654595980415"></circle><circle r="12.681118010611584" cx="546.091233510358" cy="390.276702732395" opacity="0.5787762478361184"></circle><circle r="7.442369910542265" cx="219.8674792835437" cy="298.3177226894582" opacity="0.39998855763641417"></circle><circle r="9.25117308040172" cx="251.74603181228656" cy="185.44225755854973" opacity="0.5016289420028702"></circle><circle r="4.25390575653259" cx="431.4395337846495" cy="280.1006983230099" opacity="0.7280321360215292"></circle><circle r="5.67703112327974" cx="213.53561252094843" cy="36.19749435015665" opacity="0.1879493301829801"></circle><circle r="9.189831050420505" cx="275.9204424094391" cy="665.2828595725226" opacity="0.11570544928764981"></circle><circle r="7.059924765264908" cx="530.3851236242592" cy="292.6949080935871" opacity="0.283960647038614"></circle><circle r="7.220621213529187" cx="658.417413524601" cy="737.1495252796803" opacity="0.36811647662438995"></circle><circle r="5.444602477525227" cx="377.18843812070185" cy="362.31652198839004" opacity="0.8321185211958924"></circle><circle r="7.392056161176461" cx="481.2149688417458" cy="148.55146523414396" opacity="0.42415595669550743"></circle><circle r="7.750160429956143" cx="176.4156875995105" cy="34.99975227398365" opacity="0.7143447318177033"></circle><circle r="7.380547815024716" cx="332.00184905017625" cy="713.7765290173166" opacity="0.7437353805106903"></circle><circle r="7.295166914067297" cx="711.3063068396057" cy="561.6975908656684" opacity="0.4831778004771242"></circle><circle r="6.941436389128805" cx="121.95742499186974" cy="190.4647830881495" opacity="0.10167209664282054"></circle><circle r="6.167685700003639" cx="261.29716921779743" cy="786.372548970747" opacity="0.2795652313875314"></circle><circle r="4.977270705869693" cx="247.2150357288511" cy="66.50898510382119" opacity="0.18906236925956416"></circle><circle r="7.264527256346513" cx="653.0689035037553" cy="430.7802273087185" opacity="0.7195287643670051"></circle><circle r="5.737357392336378" cx="564.8220203897923" cy="286.2182177411307" opacity="0.11721641778184187"></circle><circle r="4.932478329085907" cx="620.2378641301449" cy="583.5509944960074" opacity="0.13413999832709447"></circle><circle r="6.942694593386667" cx="562.5657619738445" cy="154.60660743689536" opacity="0.30880153529837184"></circle><circle r="5.237237178944226" cx="540.2582020428681" cy="175.46388208701913" opacity="0.7991571929124812"></circle><circle r="5.40515135524792" cx="371.50085936339985" cy="447.89696460317094" opacity="0.5833615403132453"></circle><circle r="7.372042751755851" cx="214.3392756128578" cy="241.25673321238327" opacity="0.6456186240114489"></circle><circle r="10.390840325822396" cx="359.6824603079423" cy="97.20023834285168" opacity="0.35867252250343096"></circle><circle r="5.332910056156078" cx="381.64470040958963" cy="319.0859182875854" opacity="0.8863290335537652"></circle><circle r="5.296226328333492" cx="779.4069867316368" cy="307.73946968466976" opacity="0.7460159209887433"></circle><circle r="7.944341244173058" cx="306.7554909744232" cy="618.6200548656708" opacity="0.9697633497527486"></circle><circle r="7.550688362339849" cx="299.0652188998761" cy="344.8072697692853" opacity="0.982573962701657"></circle><circle r="8.143633059240294" cx="114.52462220662335" cy="780.8159327056422" opacity="0.7879147969759019"></circle><circle r="7.036705753723275" cx="13.490471528610517" cy="757.802580925037" opacity="0.9697399177602513"></circle><circle r="8.528287692626764" cx="722.246395963692" cy="170.25478914680863" opacity="0.23984188565348238"></circle><circle r="5.459914020184504" cx="307.5370895263476" cy="232.80591102690923" opacity="0.5514699084978932"></circle><circle r="11.346124297972388" cx="577.6868990967918" cy="600.9241625104692" opacity="0.829411828537859"></circle><circle r="7.306658697421627" cx="179.30060411077588" cy="273.3110032431543" opacity="0.8958901939833472"></circle><circle r="6.2540592039333855" cx="725.9234524002935" cy="710.6737411845435" opacity="0.6277550379478403"></circle><circle r="8.889734174728865" cx="256.40252793456057" cy="419.23489099681416" opacity="0.829212586996138"></circle><circle r="8.03593732338879" cx="81.34088212956075" cy="152.7920762499458" opacity="0.9093798356102973"></circle><circle r="10.839564180558424" cx="164.04795146639984" cy="218.24354634882002" opacity="0.42150676425053435"></circle><circle r="10.65939894092834" cx="380.2290633880597" cy="567.7575652488163" opacity="0.42385663062999224"></circle><circle r="8.211367875316878" cx="193.73252930746182" cy="123.68958374055663" opacity="0.30768166514705775"></circle><circle r="6.281923319574851" cx="699.3213821887472" cy="589.2431537078243" opacity="0.32226465517720826"></circle><circle r="5.665225209688976" cx="352.0902587497037" cy="229.7120188074992" opacity="0.5474372413729318"></circle><circle r="6.018567562361538" cx="508.7311807517084" cy="324.2209291463413" opacity="0.2563000007045822"></circle><circle r="9.99497086629435" cx="197.48455047649117" cy="458.5217166912424" opacity="0.45135373591581407"></circle><circle r="6.43499274532077" cx="423.76896151726464" cy="247.7127164466411" opacity="0.40246447042885447"></circle><circle r="4.449105450585192" cx="685.8216157935293" cy="615.712018723098" opacity="0.9272872004213892"></circle><circle r="6.076601664520261" cx="315.43895789307015" cy="767.4535954151589" opacity="0.31649145802153633"></circle><circle r="5.488127495738661" cx="470.32673170059195" cy="116.65805346557272" opacity="0.5975874227248634"></circle><circle r="6.653698505614143" cx="685.8159734517338" cy="249.72043917718693" opacity="0.11402702664519423"></circle><circle r="7.623158936993639" cx="757.981867231418" cy="626.9285538952936" opacity="0.9247609544935058"></circle><circle r="8.631660075667664" cx="392.6031388269524" cy="414.84541075046604" opacity="0.7584904913718198"></circle><circle r="6.871575645069344" cx="466.7814013950594" cy="78.93664851303328" opacity="0.6960381283792282"></circle><circle r="3.4770194783974055" cx="496.82793285670806" cy="223.8559818286642" opacity="0.1357557874748413"></circle><circle r="5.830262294883152" cx="640.8674009715681" cy="555.6904006128132" opacity="0.746756978379504"></circle><circle r="7.879421229254543" cx="737.6022099008362" cy="235.08846961806668" opacity="0.8213341822921085"></circle><circle r="5.588831450793842" cx="46.86856739420989" cy="584.1285561478295" opacity="0.23186415558866025"></circle><circle r="6.315417918983699" cx="51.33781823317789" cy="786.4458048336584" opacity="0.18402445129791356"></circle><circle r="7.406682314111002" cx="266.71534591503973" cy="615.0678638670124" opacity="0.6061449634586674"></circle><circle r="4.8215409523149235" cx="404.6727329009637" cy="78.98965027397647" opacity="0.6398616222880464"></circle><circle r="8.068811156884927" cx="458.7594063010416" cy="186.13078090592168" opacity="0.43998518523287433"></circle><circle r="7.147378542359395" cx="49.28530870694792" cy="533.3270724146666" opacity="0.8982212984085277"></circle><circle r="9.744407534969493" cx="748.9799995016716" cy="427.71516719604233" opacity="0.7395020311075241"></circle><circle r="8.641273145583364" cx="585.2214575764443" cy="38.580342738452885" opacity="0.5132854182804562"></circle><circle r="4.916745406501154" cx="93.93409575721424" cy="559.4000089417207" opacity="0.7462890491512785"></circle><circle r="8.079520139669302" cx="318.0084834324627" cy="285.42415824537227" opacity="0.42508824062441564"></circle><circle r="7.855903961205653" cx="469.41358389116914" cy="779.8878657114115" opacity="0.9327809162911362"></circle><circle r="7.969052520259083" cx="457.93557191428414" cy="564.3711683069733" opacity="0.5191900616349351"></circle><circle r="6.9762867137806595" cx="221.58733094304907" cy="153.9464164506887" opacity="0.9645309503107017"></circle><circle r="5.176995512443672" cx="591.4356852655937" cy="680.8356163507898" opacity="0.9047327287644511"></circle><circle r="9.157301324936153" cx="17.07184623897091" cy="567.8940609685138" opacity="0.10158570369133188"></circle><circle r="3.894928234565645" cx="135.00765502249928" cy="593.7294817790744" opacity="0.7393780057489963"></circle><circle r="13.35613213673474" cx="490.37564111156513" cy="375.57133834260617" opacity="0.5534116861596625"></circle><circle r="7.8029720012145445" cx="696.1274543013816" cy="766.5981158764101" opacity="0.5251102417729591"></circle><circle r="4.855120603492965" cx="373.65941514209436" cy="271.3003551964599" opacity="0.13848372561749728"></circle><circle r="8.512506067072708" cx="692.126769416426" cy="53.796096147462485" opacity="0.9527077912831017"></circle><circle r="6.531148050335931" cx="477.5108978947448" cy="15.115268931372594" opacity="0.862816233146963"></circle><circle r="5.101327783820489" cx="739.513276433218" cy="483.087428184321" opacity="0.11067749265866199"></circle><circle r="7.073440007225308" cx="210.67332232722814" cy="400.88326244311065" opacity="0.7780248331241455"></circle><circle r="4.716420086792851" cx="488.1804236076082" cy="245.2034818586928" opacity="0.7660142175387681"></circle><circle r="10.417951309989977" cx="153.4247413739376" cy="428.08615154807654" opacity="0.24091795867799662"></circle><circle r="7.053161394247672" cx="31.154874629982423" cy="716.9560741431424" opacity="0.7037115333771482"></circle></g></svg>