<svg id="visual" viewBox="0 0 900 600" width="900" height="600" xmlns="http://www.w3.org/2000/svg" xmlns:xlink="http://www.w3.org/1999/xlink" version="1.1"><rect x="0" y="0" width="900" height="600" fill="#1D3B1F"></rect><defs><linearGradient id="grad1_0" x1="33.3%" y1="0%" x2="100%" y2="100%"><stop offset="20%" stop-color="#1d3b1f" stop-opacity="1"></stop><stop offset="80%" stop-color="#1d3b1f" stop-opacity="1"></stop></linearGradient></defs><defs><linearGradient id="grad2_0" x1="0%" y1="0%" x2="66.7%" y2="100%"><stop offset="20%" stop-color="#1d3b1f" stop-opacity="1"></stop><stop offset="80%" stop-color="#1d3b1f" stop-opacity="1"></stop></linearGradient></defs><g transform="translate(900, 0)"><path d="M0 486.7C-56.7 453.9 -113.5 421.1 -161.9 390.8C-210.3 360.5 -250.3 332.8 -301.9 301.9C-353.6 271.1 -417 237.1 -449.7 186.3C-482.4 135.4 -484.6 67.7 -486.7 0L0 0Z" fill="#5A9E3E"></path></g><g transform="translate(0, 600)"><path d="M0 -486.7C53.7 -456.5 107.3 -426.2 168.8 -407.4C230.2 -388.7 299.5 -381.4 344.2 -344.2C388.9 -307 409 -239.9 428.7 -177.6C448.3 -115.2 467.5 -57.6 486.7 0L0 0Z" fill="#5A9E3E"></path></g></svg>