<?xml version="1.0" encoding="UTF-8"?>
<svg version="1.1" xmlns="http://www.w3.org/2000/svg" width="360" height="360">
<path d="M0 0 C0.68449219 0.54140625 1.36898438 1.0828125 2.07421875 1.640625 C18.27162325 14.75129426 27.33287389 35.70990045 30 56 C31.22310433 77.04888349 27.33331021 96.02865074 21 116 C20.44892578 117.74023438 20.44892578 117.74023438 19.88671875 119.515625 C11.00325868 144.7123481 -6.20461412 166.5307907 -24 186 C-24.84304688 186.94746094 -25.68609375 187.89492187 -26.5546875 188.87109375 C-33.2843702 196.39814971 -40.48496887 203.26156191 -48 210 C-52.14385163 208.49058798 -54.00530392 205.57849051 -56.375 202.0625 C-57.2469278 200.80345979 -58.1207375 199.54572147 -58.99609375 198.2890625 C-59.47030762 197.60618164 -59.94452148 196.92330078 -60.43310547 196.21972656 C-63.94833425 191.23991041 -67.62151884 186.37279721 -71.26513672 181.48657227 C-79.08393532 170.94277348 -79.08393532 170.94277348 -78.78125 167.54296875 C-78.5234375 166.70378906 -78.265625 165.86460937 -78 165 C-77.7628125 164.08863281 -77.525625 163.17726562 -77.28125 162.23828125 C-76.89453125 160.79001953 -76.89453125 160.79001953 -76.5 159.3125 C-74.75927629 152.29865717 -73.91490952 145.76724484 -74.0859375 138.5390625 C-74.29338189 129.18359971 -74.22835024 121.5848323 -70 113 C-66.26021228 105.8452876 -66.26021228 105.8452876 -67 98 C-72.73811446 98.39204509 -75.46111177 99.70991501 -79.6875 103.5625 C-84.58190328 108 -84.58190328 108 -89 108 C-90.41106248 105.17787505 -89.89604238 103.06913828 -89.625 99.9375 C-89.53089844 98.7721875 -89.43679687 97.606875 -89.33984375 96.40625 C-89.05513024 93.55256977 -88.6447995 90.76615669 -88.1875 87.9375 C-87.57829434 83.9892424 -87.57829434 83.9892424 -89.9375 81.4375 C-90.618125 80.963125 -91.29875 80.48875 -92 80 C-94.91386116 80.48903628 -94.91386116 80.48903628 -98 82 C-99.53618938 84.39223385 -100.64970141 86.42747091 -101.75 89 C-104.84065934 95.84065934 -104.84065934 95.84065934 -107 98 C-109 97.8125 -109 97.8125 -111 97 C-112.96418303 94.05372546 -113.28412168 93.17409049 -113.5625 89.83984375 C-113.63726562 89.04642578 -113.71203125 88.25300781 -113.7890625 87.43554688 C-113.93001501 85.76630366 -114.0706385 84.09703264 -114.2109375 82.42773438 C-114.32308594 81.23954102 -114.32308594 81.23954102 -114.4375 80.02734375 C-114.49808594 79.30281006 -114.55867187 78.57827637 -114.62109375 77.83178711 C-114.87504064 75.75881622 -114.87504064 75.75881622 -117 74 C-119.91440699 73.33278464 -119.91440699 73.33278464 -123 74 C-127.02890666 78.71767195 -127.7048159 82.74855642 -128.125 88.6875 C-128.76013514 96.6402027 -128.76013514 96.6402027 -131 100 C-134.91674869 99.77059043 -136.5424882 99.49143078 -139.265625 96.56640625 C-140.24789062 95.07947266 -140.24789062 95.07947266 -141.25 93.5625 C-143.8807976 89.5798668 -143.8807976 89.5798668 -147 86 C-150 85.58333333 -150 85.58333333 -153 86 C-156.03643309 90.55464964 -155.65391983 94.65436413 -155 100 C-154.22181378 102.49995714 -153.40861529 104.92538828 -152.5 107.375 C-150.0199682 114.13982211 -148.54949567 120.8175027 -150 128 C-152.18076763 131.31034072 -153.20843021 132.7361434 -157 134 C-162.47767591 131.19436112 -166.29342117 126.71832393 -170.4375 122.2421875 C-174.3714861 118.79994966 -178.52297866 117.71572315 -183.6875 117.5625 C-184.43386719 117.52253906 -185.18023437 117.48257813 -185.94921875 117.44140625 C-188.29295292 117.84494559 -188.29295292 117.84494559 -189.76953125 120.52734375 C-190.37861328 121.75130859 -190.37861328 121.75130859 -191 123 C-186.65838497 129.91495638 -182.19990846 136.73578979 -177.62792969 143.5 C-174.74501598 147.79248479 -172.11894795 152.15610414 -169.7421875 156.75390625 C-164.24190214 163.84508132 -155.13979549 168.00455578 -147.50976562 172.41210938 C-139.58404496 177.06747879 -131.76341157 181.75078106 -126.875 189.75 C-126.52429443 190.31871826 -126.17358887 190.88743652 -125.81225586 191.47338867 C-121.17788917 199.12886248 -116.91490194 207.01567632 -112.61474609 214.86254883 C-109.74767151 220.08682602 -106.86895574 225.28743188 -103.77734375 230.3828125 C-103.30288818 231.16487061 -102.82843262 231.94692871 -102.33959961 232.75268555 C-101.4723574 234.16711065 -100.59487343 235.57532797 -99.70532227 236.97583008 C-96.95856502 241.45596072 -96.95856502 241.45596072 -97.15405273 244.02270508 C-98.87192295 248.0380098 -103.41554863 249.67148321 -107.0625 251.75 C-108.31450195 252.50990234 -108.31450195 252.50990234 -109.59179688 253.28515625 C-115.03334279 256.43217657 -118.71145552 257.85872981 -125 257 C-127.93359375 255.7578125 -127.93359375 255.7578125 -130.4375 254.125 C-131.28183594 253.59132813 -132.12617188 253.05765625 -132.99609375 252.5078125 C-135 251 -135 251 -136 249 C-134.99951172 246.80444336 -134.99951172 246.80444336 -133.4296875 244.08984375 C-132.57890625 242.60387695 -132.57890625 242.60387695 -131.7109375 241.08789062 C-131.10507813 240.04826172 -130.49921875 239.00863281 -129.875 237.9375 C-128.13229288 234.90896806 -126.39023966 231.8801423 -124.65527344 228.84716797 C-123.59394845 227.02162637 -122.50554286 225.21140808 -121.38378906 223.42236328 C-120.9090918 222.64489746 -120.43439453 221.86743164 -119.9453125 221.06640625 C-119.52008301 220.39681885 -119.09485352 219.72723145 -118.65673828 219.03735352 C-117.70698852 216.09101085 -118.63046905 214.71641857 -120 212 C-121.8176512 208.4863061 -123.7925715 205.06243541 -125.75 201.625 C-126.26304687 200.70460938 -126.77609375 199.78421875 -127.3046875 198.8359375 C-132.40819894 189.85991235 -137.345235 183.85480081 -146.25 178.5625 C-146.96929687 178.11712891 -147.68859375 177.67175781 -148.4296875 177.21289062 C-151.95899376 174.838595 -151.95899376 174.838595 -156 174 C-157.85540923 176.42276578 -159.59545882 178.85617954 -161.3125 181.375 C-162.39087766 182.93171707 -163.47034302 184.48768111 -164.55078125 186.04296875 C-165.39503662 187.26185791 -165.39503662 187.26185791 -166.25634766 188.50537109 C-169.6504779 193.36132501 -173.14828149 198.14273579 -176.6340332 202.93310547 C-179.51316423 206.90135616 -182.31324514 210.89882371 -185 215 C-188.94311163 214.43928229 -190.89439727 212.55781148 -193.75 209.875 C-194.63300781 209.05515625 -195.51601562 208.2353125 -196.42578125 207.390625 C-197.27527344 206.60171875 -198.12476563 205.8128125 -199 205 C-200.30789944 203.86965479 -201.62002742 202.74417258 -202.9375 201.625 C-210.94876943 194.61513925 -218.21050749 187.05522862 -224.83203125 178.72265625 C-226.23796131 176.95701076 -227.67162233 175.21296177 -229.13671875 173.49609375 C-255.97495869 141.93586546 -274.34993567 100.95351099 -272 59 C-269.66117636 35.32398887 -258.73326674 13.66920696 -240.71875 -1.87109375 C-222.32426663 -16.27481995 -201.86692873 -20.64658732 -179 -19 C-161.72984834 -16.79553788 -146.13568095 -6.67599705 -134.94921875 6.37109375 C-129.76511424 13.362882 -125.8399468 21.2137694 -122 29 C-118.38386594 25.75851046 -116.12030288 22.0530455 -113.75 17.875 C-110.04716595 11.52872162 -106.17530447 5.27459089 -101 0 C-100.34 0 -99.68 0 -99 0 C-99 -0.66 -99 -1.32 -99 -2 C-97.09436916 -3.54207647 -95.20948395 -4.93742678 -93.1875 -6.3125 C-92.59654541 -6.71549316 -92.00559082 -7.11848633 -91.39672852 -7.53369141 C-62.55158578 -26.76378656 -25.72228039 -22.52388826 0 0 Z M-107.61401367 37.12670898 C-110.19385509 42.47498337 -111.08877837 48.28267873 -112.3125 54.0625 C-112.60189453 55.34189453 -112.89128906 56.62128906 -113.18945312 57.93945312 C-113.45306641 59.16728516 -113.71667969 60.39511719 -113.98828125 61.66015625 C-114.23102783 62.78043213 -114.47377441 63.90070801 -114.72387695 65.05493164 C-115.14257504 69.52067441 -113.42545698 71.36181453 -111 75 C-110.58935547 76.90112305 -110.58935547 76.90112305 -110.3671875 79.01171875 C-110.28339844 79.76904297 -110.19960937 80.52636719 -110.11328125 81.30664062 C-110.03464844 82.09232422 -109.95601562 82.87800781 -109.875 83.6875 C-109.78863281 84.48478516 -109.70226562 85.28207031 -109.61328125 86.10351562 C-109.40151528 88.06823326 -109.19978527 90.03402796 -109 92 C-105.6042912 89.00783921 -104.21074981 85.43770256 -102.37890625 81.375 C-101 79 -101 79 -98.95849609 77.8828125 C-96.39835067 75.42160064 -96.45242516 73.39176474 -96.31739807 69.94335938 C-96.30143837 68.73389648 -96.30143837 68.73389648 -96.28515625 67.5 C-96.26150497 66.66791016 -96.2378537 65.83582031 -96.21348572 64.97851562 C-96.16823737 63.22027062 -96.13271556 61.46175228 -96.10620117 59.703125 C-96.06264688 57.00908523 -95.98187108 54.31800306 -95.89648438 51.625 C-95.85714732 49.91671651 -95.81996527 48.20838175 -95.78515625 46.5 C-95.76034683 45.69369141 -95.73553741 44.88738281 -95.7099762 44.05664062 C-95.55712476 39.90702537 -95.55712476 39.90702537 -97.30076599 36.29492188 C-99.11618853 34.69319446 -99.11618853 34.69319446 -102.5 34.5 C-106.08426864 34.59354229 -106.08426864 34.59354229 -107.61401367 37.12670898 Z M-151 43 C-151.55087899 50.03231461 -150.38012382 56.98431697 -149.30322266 63.92651367 C-149.10164593 65.26337963 -148.91372365 66.60237828 -148.73974609 67.94311523 C-147.64140798 76.38335759 -146.23926585 82.13402042 -139.9375 88.07250977 C-138 90 -138 90 -136.375 92.74194336 C-135.92125 93.48710205 -135.4675 94.23226074 -135 95 C-134.34 95 -133.68 95 -133 95 C-132.95101562 94.13117188 -132.90203125 93.26234375 -132.8515625 92.3671875 C-132.77679688 91.21476562 -132.70203125 90.06234375 -132.625 88.875 C-132.55539063 87.73804688 -132.48578125 86.60109375 -132.4140625 85.4296875 C-132 82 -132 82 -130.8984375 78.9453125 C-128.74766634 71.89452357 -132.8575643 64.26431294 -135.23803711 57.6394043 C-135.94063895 55.67874052 -136.62985492 53.71369894 -137.31835938 51.74804688 C-137.75857422 50.51505859 -138.19878906 49.28207031 -138.65234375 48.01171875 C-139.05445068 46.88209717 -139.45655762 45.75247559 -139.87084961 44.58862305 C-140.728 41.8689065 -140.728 41.8689065 -143 41 C-147.50380153 40.53068821 -147.50380153 40.53068821 -151 43 Z M-75.99609375 63.8359375 C-76.65738281 64.88007812 -77.31867188 65.92421875 -78 67 C-79.03833984 68.50433594 -79.03833984 68.50433594 -80.09765625 70.0390625 C-83.76071866 74.66147205 -83.76071866 74.66147205 -84.69140625 80.09765625 C-84.46324219 80.72542969 -84.23507813 81.35320312 -84 82 C-83.76035038 88.71018932 -84.37666676 95.32142958 -85 102 C-84.48050781 101.60167969 -83.96101562 101.20335937 -83.42578125 100.79296875 C-82.72839844 100.26316406 -82.03101563 99.73335937 -81.3125 99.1875 C-80.28576172 98.40439453 -80.28576172 98.40439453 -79.23828125 97.60546875 C-77 96 -77 96 -74.55688477 94.81713867 C-71.17319059 92.41239927 -70.38375117 90.15717467 -68.8515625 86.3203125 C-68.58991302 85.67053436 -68.32826355 85.02075623 -68.0586853 84.35128784 C-67.51148307 82.98099085 -66.97236741 81.60744009 -66.44091797 80.23095703 C-65.62702475 78.13022607 -64.78255682 76.04379919 -63.93359375 73.95703125 C-63.40437996 72.62053064 -62.87697418 71.28331239 -62.3515625 69.9453125 C-61.87541504 68.73375488 -61.39926758 67.52219727 -60.90869141 66.27392578 C-59.97725399 62.91804835 -59.85404798 61.25230026 -61 58 C-62.92429335 55.73809208 -62.92429335 55.73809208 -66.125 55.1875 C-71.62197919 56.34009241 -72.99028631 59.28310979 -75.99609375 63.8359375 Z M-181 83 C-183.3025018 85.79037718 -183.3025018 85.79037718 -182.80053711 88.80371094 C-181.48441458 94.05856795 -178.96983058 98.64521414 -176.49243164 103.43896484 C-175.57721601 105.22134068 -174.69164306 107.01883735 -173.80664062 108.81640625 C-169.70463311 116.80709912 -165.18983954 123.46752508 -158 129 C-157.01 129 -156.02 129 -155 129 C-151.77588323 122.55176645 -154.31874541 114.25594918 -156.44775391 107.83374023 C-160.05146487 98.25405652 -167.4826972 89.80671199 -175 83 C-178.1284035 82.33209636 -178.1284035 82.33209636 -181 83 Z M-65.046875 116.5625 C-68.19978003 120.49732548 -69.25418442 123.14013977 -69.1953125 128.203125 C-69.18886719 129.1828125 -69.18242187 130.1625 -69.17578125 131.171875 C-69.15902344 132.18765625 -69.14226562 133.2034375 -69.125 134.25 C-69.11597656 135.28125 -69.10695312 136.3125 -69.09765625 137.375 C-69.07412011 139.91690287 -69.04124023 142.4583328 -69 145 C-65.14007501 141.74401812 -61.35338141 138.48158849 -57.8125 134.875 C-56.86310547 133.91207031 -56.86310547 133.91207031 -55.89453125 132.9296875 C-55.26933594 132.29289062 -54.64414063 131.65609375 -54 131 C-53.26136719 130.30132812 -52.52273437 129.60265625 -51.76171875 128.8828125 C-49.7722549 127.18634972 -49.7722549 127.18634972 -50 125 C-49.41734375 124.74863281 -48.8346875 124.49726563 -48.234375 124.23828125 C-45.71728941 122.84332297 -44.1656665 121.32829825 -42.25 119.1875 C-41.63640625 118.52105469 -41.0228125 117.85460937 -40.390625 117.16796875 C-38.69825243 114.52957893 -38.57513181 113.08029435 -39 110 C-42.18078861 106.42161282 -45.3692669 105.17728475 -50.03125 104.85546875 C-56.59873811 105.33760577 -60.99670955 112.04394807 -65.046875 116.5625 Z " fill="#EC1A23" transform="translate(301,57)"/>
<path d="M0 0 C5.8803394 2.16532353 10.83187088 5.50479129 16 9 C16.64453125 9.41765625 17.2890625 9.8353125 17.953125 10.265625 C24.5371991 15.12676382 28.08910638 23.0068385 32 30 C32.53077148 30.94504395 33.06154297 31.89008789 33.60839844 32.86376953 C35.99439623 37.11446034 38.37792836 41.36634828 40.74267578 45.62890625 C43.47578878 50.54746505 46.23192679 55.43826083 49.15625 60.24609375 C49.86599976 61.41615967 49.86599976 61.41615967 50.59008789 62.60986328 C51.46379886 64.03813296 52.34782856 65.46016119 53.24389648 66.87451172 C56.04117394 71.45037423 56.04117394 71.45037423 55.84814453 74.02709961 C54.12399054 78.03771803 49.58350114 79.67202478 45.9375 81.75 C45.10283203 82.25660156 44.26816406 82.76320313 43.40820312 83.28515625 C37.96665721 86.43217657 34.28854448 87.85872981 28 87 C25.06640625 85.7578125 25.06640625 85.7578125 22.5625 84.125 C21.71816406 83.59132813 20.87382812 83.05765625 20.00390625 82.5078125 C18 81 18 81 17 79 C18.00048828 76.80444336 18.00048828 76.80444336 19.5703125 74.08984375 C20.42109375 72.60387695 20.42109375 72.60387695 21.2890625 71.08789062 C21.89492187 70.04826172 22.50078125 69.00863281 23.125 67.9375 C24.86770712 64.90896806 26.60976034 61.8801423 28.34472656 58.84716797 C29.40605155 57.02162637 30.49445714 55.21140808 31.61621094 53.42236328 C32.0909082 52.64489746 32.56560547 51.86743164 33.0546875 51.06640625 C33.47991699 50.39681885 33.90514648 49.72723145 34.34326172 49.03735352 C35.29301148 46.09101085 34.36953095 44.71641857 33 42 C31.1823488 38.4863061 29.2074285 35.06243541 27.25 31.625 C26.73695313 30.70460938 26.22390625 29.78421875 25.6953125 28.8359375 C20.59180106 19.85991235 15.654765 13.85480081 6.75 8.5625 C6.03070313 8.11712891 5.31140625 7.67175781 4.5703125 7.21289062 C1.04100624 4.838595 1.04100624 4.838595 -3 4 C-4.35712166 5.55855981 -4.35712166 5.55855981 -5.625 7.5 C-6.07101563 8.1496875 -6.51703125 8.799375 -6.9765625 9.46875 C-7.48316406 10.22671875 -7.48316406 10.22671875 -8 11 C-8.33 10.34 -8.66 9.68 -9 9 C-7.9375 5.9375 -7.9375 5.9375 -6 3 C-2.8125 2.125 -2.8125 2.125 0 2 C0 1.34 0 0.68 0 0 Z " fill="#ED1A23" transform="translate(148,227)"/>
<path d="M0 0 C1.60474135 4.55222547 0.15901896 8.47174331 -0.91796875 13.02734375 C-1.02727622 16.9884381 0.55555635 17.96799283 3 21 C3.75585523 23.74170273 4.00737594 26.4844133 4.25 29.3125 C4.32734375 30.05306641 4.4046875 30.79363281 4.484375 31.55664062 C4.67151741 33.36958268 4.83787704 35.18464954 5 37 C5.39832031 36.16855469 5.79664063 35.33710938 6.20703125 34.48046875 C6.73683594 33.39378906 7.26664063 32.30710938 7.8125 31.1875 C8.33457031 30.10855469 8.85664063 29.02960938 9.39453125 27.91796875 C10.76401081 25.42891467 11.78083012 23.73277648 14 22 C14.66 22 15.32 22 16 22 C16 22.66 16 23.32 16 24 C19.96 23.505 19.96 23.505 24 23 C24.495 23.99 24.495 23.99 25 25 C25.62648437 23.989375 26.25296875 22.97875 26.8984375 21.9375 C27.72358504 20.62476528 28.54912623 19.31227795 29.375 18 C29.7875 17.33226562 30.2 16.66453125 30.625 15.9765625 C31.69660955 14.28272806 32.84330499 12.63691136 34 11 C34.66 11 35.32 11 36 11 C36.33 9.68 36.66 8.36 37 7 C37.66 7 38.32 7 39 7 C37.12659577 12.3823201 33.88761847 16.5693845 30.58203125 21.16015625 C28.7609386 23.77693446 28.7609386 23.77693446 29.25390625 26.1484375 C29.50011719 26.75945312 29.74632812 27.37046875 30 28 C30.22420122 34.38973489 29.65407272 40.64615076 29 47 C29.54269531 46.50628906 30.08539063 46.01257813 30.64453125 45.50390625 C31.35996094 44.86324219 32.07539063 44.22257812 32.8125 43.5625 C33.52019531 42.92441406 34.22789062 42.28632813 34.95703125 41.62890625 C37 40 37 40 40 39 C41.19864128 36.47731214 42.22406621 34.0470972 43.1875 31.4375 C43.46013672 30.72658203 43.73277344 30.01566406 44.01367188 29.28320312 C44.68590073 27.5259733 45.34427492 25.76345482 46 24 C47.37095624 27.69037278 46.60010967 29.70883835 45.0625 33.25 C44.68222656 34.14203125 44.30195313 35.0340625 43.91015625 35.953125 C43.60980469 36.62859375 43.30945313 37.3040625 43 38 C44.65 38.33 46.3 38.66 48 39 C49.30667509 45.37004106 50.48492458 51.50915877 47.0625 57.25 C46.381875 58.1575 45.70125 59.065 45 60 C44.21784412 62.7282504 44.21784412 62.7282504 44 65 C44.99 65 45.98 65 47 65 C46.67402832 65.55719727 46.34805664 66.11439453 46.01220703 66.68847656 C44.85737821 69.3256978 44.76972017 71.117054 44.8046875 73.984375 C44.81113281 74.91894531 44.81757813 75.85351562 44.82421875 76.81640625 C44.84097656 77.78449219 44.85773438 78.75257813 44.875 79.75 C44.88402344 80.73355469 44.89304687 81.71710938 44.90234375 82.73046875 C44.92587215 85.15389407 44.95874632 87.57682222 45 90 C45.99 89.34 46.98 88.68 48 88 C48 89.65 48 91.3 48 93 C46.35 93.33 44.7 93.66 43 94 C42.01956036 91.05868109 41.88378798 89.17498335 41.90234375 86.11328125 C41.90717773 84.7065918 41.90717773 84.7065918 41.91210938 83.27148438 C41.92467773 81.80678711 41.92467773 81.80678711 41.9375 80.3125 C41.94201172 79.32443359 41.94652344 78.33636719 41.95117188 77.31835938 C41.96295697 74.87884526 41.97940989 72.43945311 42 70 C41.9906543 70.84071045 41.98130859 71.6814209 41.97167969 72.54760742 C41.92708481 75.73329919 41.86521994 78.91810733 41.79248047 82.10327148 C41.76463698 83.46936254 41.74324483 84.83560374 41.72900391 86.2019043 C41.62182342 95.91602866 40.37163187 103.91036758 37 113 C36.34 113 35.68 113 35 113 C35.20496094 112.10539062 35.40992188 111.21078125 35.62109375 110.2890625 C37.54312754 101.66290129 39.12387175 93.4177574 38.9140625 84.546875 C38.70684558 75.18866168 38.77038392 67.58740234 43 59 C46.73978772 51.8452876 46.73978772 51.8452876 46 44 C40.26188554 44.39204509 37.53888823 45.70991501 33.3125 49.5625 C28.41809672 54 28.41809672 54 24 54 C22.58893752 51.17787505 23.10395762 49.06913828 23.375 45.9375 C23.46910156 44.7721875 23.56320313 43.606875 23.66015625 42.40625 C23.94486976 39.55256977 24.3552005 36.76615669 24.8125 33.9375 C25.42170566 29.9892424 25.42170566 29.9892424 23.0625 27.4375 C22.381875 26.963125 21.70125 26.48875 21 26 C18.08613884 26.48903628 18.08613884 26.48903628 15 28 C13.46381062 30.39223385 12.35029859 32.42747091 11.25 35 C8.15934066 41.84065934 8.15934066 41.84065934 6 44 C4 43.8125 4 43.8125 2 43 C0.03581697 40.05372546 -0.28412168 39.17409049 -0.5625 35.83984375 C-0.63726562 35.04642578 -0.71203125 34.25300781 -0.7890625 33.43554688 C-0.93001501 31.76630366 -1.0706385 30.09703264 -1.2109375 28.42773438 C-1.28570312 27.63560547 -1.36046875 26.84347656 -1.4375 26.02734375 C-1.49808594 25.30281006 -1.55867188 24.57827637 -1.62109375 23.83178711 C-1.87504064 21.75881622 -1.87504064 21.75881622 -4 20 C-6.91440699 19.33278464 -6.91440699 19.33278464 -10 20 C-14.02890666 24.71767195 -14.7048159 28.74855642 -15.125 34.6875 C-15.76013514 42.6402027 -15.76013514 42.6402027 -18 46 C-21.89092178 45.76654469 -23.5401506 45.48680608 -26.265625 42.6015625 C-26.92046875 41.61929688 -27.5753125 40.63703125 -28.25 39.625 C-28.91515625 38.64789063 -29.5803125 37.67078125 -30.265625 36.6640625 C-30.83796875 35.78492188 -31.4103125 34.90578125 -32 34 C-32.66 33.01 -33.32 32.02 -34 31 C-33.01 31 -32.02 31 -31 31 C-31 30.01 -31 29.02 -31 28 C-23.33257403 36.261959 -23.33257403 36.261959 -22 41 C-21.34 41 -20.68 41 -20 41 C-20.03480469 40.17757812 -20.06960937 39.35515625 -20.10546875 38.5078125 C-20.28546746 31.08500865 -19.63666369 24.95263103 -17 18 C-16.34 18.33 -15.68 18.66 -15 19 C-15 19.66 -15 20.32 -15 21 C-14.13375 20.34 -13.2675 19.68 -12.375 19 C-8.78576537 16.87304615 -7.07305202 16.61209028 -3 17 C-3.19335938 16.46761719 -3.38671875 15.93523437 -3.5859375 15.38671875 C-4.13646921 12.21337087 -3.44856566 9.91409362 -2.625 6.8125 C-2.34914062 5.74644531 -2.07328125 4.68039063 -1.7890625 3.58203125 C-1 1 -1 1 0 0 Z " fill="#C6121B" transform="translate(188,111)"/>
<path d="M0 0 C5.8803394 2.16532353 10.83187088 5.50479129 16 9 C16.64453125 9.41765625 17.2890625 9.8353125 17.953125 10.265625 C23.90399534 14.65925824 27.13637152 21.42215681 30.70410156 27.73339844 C32.12474969 30.21819445 33.58640032 32.67588474 35.0546875 35.1328125 C36.07849583 36.85915513 37.10193833 38.58571478 38.125 40.3125 C38.87185059 41.55809692 38.87185059 41.55809692 39.63378906 42.82885742 C40.0872168 43.60334229 40.54064453 44.37782715 41.0078125 45.17578125 C41.41660645 45.86583252 41.82540039 46.55588379 42.24658203 47.2668457 C42.49520996 47.83878662 42.74383789 48.41072754 43 49 C42.505 49.99 42.505 49.99 42 51 C40 50 40 50 39 47 C38.01 46.505 38.01 46.505 37 46 C36.84144531 46.556875 36.68289062 47.11375 36.51953125 47.6875 C35.00268065 52.64869092 33.12144393 56.71710376 30.25390625 61.03125 C29.00540921 62.99150704 27.996504 64.96459685 27 67.0625 C25.64144687 69.88539524 24.10894119 72.3528972 22.25 74.875 C19.80523176 77.62872304 19.80523176 77.62872304 20 80 C21.72601379 80.81917642 23.4559647 81.63006016 25.1875 82.4375 C26.15042969 82.88996094 27.11335938 83.34242188 28.10546875 83.80859375 C30.76631586 84.90381422 33.16784755 85.54954796 36 86 C36 86.33 36 86.66 36 87 C28.55314032 87.82742885 23.93717567 85.46734855 18 81 C17.505 80.01 17.505 80.01 17 79 C18.00048828 76.80444336 18.00048828 76.80444336 19.5703125 74.08984375 C20.42109375 72.60387695 20.42109375 72.60387695 21.2890625 71.08789062 C21.89492187 70.04826172 22.50078125 69.00863281 23.125 67.9375 C24.86770712 64.90896806 26.60976034 61.8801423 28.34472656 58.84716797 C29.40605155 57.02162637 30.49445714 55.21140808 31.61621094 53.42236328 C32.0909082 52.64489746 32.56560547 51.86743164 33.0546875 51.06640625 C33.47991699 50.39681885 33.90514648 49.72723145 34.34326172 49.03735352 C35.29301148 46.09101085 34.36953095 44.71641857 33 42 C31.1823488 38.4863061 29.2074285 35.06243541 27.25 31.625 C26.73695313 30.70460938 26.22390625 29.78421875 25.6953125 28.8359375 C20.59180106 19.85991235 15.654765 13.85480081 6.75 8.5625 C6.03070313 8.11712891 5.31140625 7.67175781 4.5703125 7.21289062 C1.04100624 4.838595 1.04100624 4.838595 -3 4 C-4.35712166 5.55855981 -4.35712166 5.55855981 -5.625 7.5 C-6.07101563 8.1496875 -6.51703125 8.799375 -6.9765625 9.46875 C-7.48316406 10.22671875 -7.48316406 10.22671875 -8 11 C-8.33 10.34 -8.66 9.68 -9 9 C-7.9375 5.9375 -7.9375 5.9375 -6 3 C-2.8125 2.125 -2.8125 2.125 0 2 C0 1.34 0 0.68 0 0 Z " fill="#C8121A" transform="translate(148,227)"/>
<path d="M0 0 C16.07833879 10.38301442 25.04883284 28.05953598 30 46 C30.24621094 46.87527344 30.49242187 47.75054687 30.74609375 48.65234375 C35.96200458 71.42249242 29.87153111 95.33143437 23 117 C22.44892578 118.74023438 22.44892578 118.74023438 21.88671875 120.515625 C16.96590322 134.47284722 9.03536812 148.28177513 0 160 C-0.66 158.68 -1.32 157.36 -2 156 C-1.40058594 155.773125 -0.80117188 155.54625 -0.18359375 155.3125 C2.64056322 153.61497452 3.44069765 151.91897189 4.9375 149 C5.44410156 148.02417969 5.95070313 147.04835937 6.47265625 146.04296875 C6.97667969 145.03878906 7.48070312 144.03460938 8 143 C8.49371094 142.02675781 8.98742187 141.05351562 9.49609375 140.05078125 C10.67662284 137.70644444 11.8446051 135.3568011 13 133 C13.66 133 14.32 133 15 133 C15.73832608 128.67551867 16.39174965 124.34464536 17 120 C17.99 120 18.98 120 20 120 C20.10957031 119.28714844 20.21914063 118.57429688 20.33203125 117.83984375 C21.15095207 112.89302935 22.05341456 108.61726461 24.20703125 104.05859375 C31.43713395 85.28881975 32.31427321 56.80813111 25 38 C24.34 38 23.68 38 23 38 C22.87625 36.9275 22.7525 35.855 22.625 34.75 C22.09251493 31.55508956 21.48157272 29.76560241 20 27 C20 26.01 20 25.02 20 24 C19.34 24 18.68 24 18 24 C15.59256824 22.19442618 14.99691104 20.98962992 14.125 18.0625 C12.76422724 14.35817416 11.10017385 13.34403389 8 11 C7 9.33333333 6 7.66666667 5 6 C3.34466005 4.65263027 1.67987227 3.31665664 0 2 C0 1.34 0 0.68 0 0 Z " fill="#BE1219" transform="translate(299,56)"/>
<path d="M0 0 C0 0.33 0 0.66 0 1 C-1.134375 1.28875 -2.26875 1.5775 -3.4375 1.875 C-4.613125 2.24625 -5.78875 2.6175 -7 3 C-9.53436941 8.06873882 -8.49610204 14.39894341 -6.8828125 19.60546875 C-6.42826476 20.86430478 -5.96719882 22.12080421 -5.5 23.375 C-3.01904013 30.1391346 -1.54961496 36.81809339 -3 44 C-5.18076763 47.31034072 -6.20843021 48.7361434 -10 50 C-15.36349733 47.13115259 -20.45693274 42.96029417 -24 38 C-24 34 -24 34 -23 31 C-22.505 31.66 -22.01 32.32 -21.5 33 C-15.71810437 40.31854801 -15.71810437 40.31854801 -8 45 C-6.98555926 32.8943405 -9.90622553 21.9130951 -17 12 C-13.125 13.875 -13.125 13.875 -12 15 C-11.97421875 14.25234375 -11.9484375 13.5046875 -11.921875 12.734375 C-11.46294235 4.76563543 -11.46294235 4.76563543 -9.375 1.3125 C-6.15202879 -0.46861567 -3.61868789 -0.27836061 0 0 Z " fill="#C3131A" transform="translate(154,141)"/>
<path d="M0 0 C0.33 1.32 0.66 2.64 1 4 C0.18208984 4.62261719 0.18208984 4.62261719 -0.65234375 5.2578125 C-10.73007572 13.492267 -17.70830721 24.09276477 -20 37 C-20.66 37 -21.32 37 -22 37 C-22.30744141 38.60681641 -22.30744141 38.60681641 -22.62109375 40.24609375 C-22.89302709 41.64326851 -23.16517352 43.04040181 -23.4375 44.4375 C-23.57220703 45.14455078 -23.70691406 45.85160156 -23.84570312 46.58007812 C-24.88671875 51.88671875 -24.88671875 51.88671875 -26 53 C-26.0883967 55.3756852 -26.11530305 57.72208674 -26.09765625 60.09765625 C-26.0962413 60.80651474 -26.09482635 61.51537323 -26.09336853 62.24571228 C-26.08775443 64.51801712 -26.07519963 66.79022475 -26.0625 69.0625 C-26.05748681 70.59960796 -26.05292359 72.13671745 -26.04882812 73.67382812 C-26.03778042 77.44925642 -26.02050641 81.22461171 -26 85 C-26.99 85.495 -26.99 85.495 -28 86 C-31.60284702 60.43140822 -27.35060508 34.09901616 -11.7265625 12.91796875 C-8.04546209 8.35022456 -4.18531477 4.11188819 0 0 Z " fill="#BF151E" transform="translate(58,57)"/>
<path d="M0 0 C1.32 0 2.64 0 4 0 C4 0.66 4 1.32 4 2 C5.65 1.34 7.3 0.68 9 0 C8.46375 0.7425 7.9275 1.485 7.375 2.25 C6.92125 3.1575 6.4675 4.065 6 5 C6.6501992 7.21734114 6.6501992 7.21734114 8 9 C9.23689062 11.47378124 9.13310087 13.17915317 9.125 15.9375 C9.12757813 16.81277344 9.13015625 17.68804687 9.1328125 18.58984375 C9 21 9 21 8 24 C7.85110253 25.84466442 7.7520899 27.69357275 7.68359375 29.54296875 C7.64169922 30.61611328 7.59980469 31.68925781 7.55664062 32.79492188 C7.49766602 34.47424805 7.49766602 34.47424805 7.4375 36.1875 C7.39431641 37.31865234 7.35113281 38.44980469 7.30664062 39.61523438 C7.20050901 42.41003354 7.09845615 45.20492162 7 48 C6.67 48 6.34 48 6 48 C6.01571045 46.33445068 6.01571045 46.33445068 6.03173828 44.63525391 C6.06787949 40.52412121 6.09087896 36.41300261 6.10986328 32.30175781 C6.11993431 30.52080933 6.13359185 28.73987743 6.15087891 26.95898438 C6.17507913 24.40230217 6.18647184 21.84583815 6.1953125 19.2890625 C6.20563507 18.49005524 6.21595764 17.69104797 6.22659302 16.86782837 C6.22699226 14.9104278 6.12241069 12.95356923 6 11 C4.05765911 8.61214724 4.05765911 8.61214724 0.5 8.8125 C-2.84964703 8.75868763 -2.84964703 8.75868763 -5 10 C-4.34 8.35 -3.68 6.7 -3 5 C-2.01 5 -1.02 5 0 5 C-0.2784375 4.0409375 -0.2784375 4.0409375 -0.5625 3.0625 C-0.706875 2.381875 -0.85125 1.70125 -1 1 C-0.67 0.67 -0.34 0.34 0 0 Z " fill="#D41A25" transform="translate(198,84)"/>
<path d="M0 0 C0.66 0 1.32 0 2 0 C2 2.64 2 5.28 2 8 C2.66 8 3.32 8 4 8 C4 9.32 4 10.64 4 12 C4.66 12 5.32 12 6 12 C7.21382204 15.80330907 8.06520355 19.20166306 8.3125 23.1875 C8.77729107 28.30020174 10.73329802 32.56503867 12.84375 37.203125 C13.92746078 39.8245335 14.5516333 42.20789825 15 45 C11.87088838 41.36833409 10.32528945 37.35493261 8.625 32.9375 C8.17145142 31.76550049 8.17145142 31.76550049 7.70874023 30.56982422 C0 10.06616463 0 10.06616463 0 0 Z " fill="#C5161F" transform="translate(31,144)"/>
<path d="M0 0 C1.875 0.6875 1.875 0.6875 4 2 C4.66720168 3.66645256 5.33372014 5.33317866 6 7 C7.47070926 9.64105725 9.07487112 12.19371575 10.6875 14.75 C11.13013184 15.45721191 11.57276367 16.16442383 12.02880859 16.89306641 C15.02835905 21.6261726 18.21769832 26.09854316 21.8203125 30.3984375 C23 32 23 32 23 34 C23.66 34 24.32 34 25 34 C27.6875 36.8125 27.6875 36.8125 30 40 C29.67 40.99 29.34 41.98 29 43 C0 9.70132743 0 9.70132743 0 0 Z " fill="#B8121B" transform="translate(49,195)"/>
<path d="M0 0 C-0.33 0.66 -0.66 1.32 -1 2 C-3.05726896 2.48002942 -5.11740914 2.94977718 -7.1875 3.37109375 C-10.42231998 4.09443544 -13.57412828 4.98834743 -16.75 5.9375 C-17.81734375 6.25589844 -18.8846875 6.57429688 -19.984375 6.90234375 C-25.17345204 8.79111402 -28.86810927 11.36051624 -32.3125 15.625 C-34.7014776 17.57157434 -36.99274169 17.66586019 -40 18 C-30.43999208 7.12137029 -14.50821427 -0.32973214 0 0 Z " fill="#BB141E" transform="translate(100,39)"/>
<path d="M0 0 C0.66 0.33 1.32 0.66 2 1 C1.67 1.66 1.34 2.32 1 3 C1.928125 2.484375 2.85625 1.96875 3.8125 1.4375 C7 0 7 0 10 1 C9.45730469 1.45890625 8.91460937 1.9178125 8.35546875 2.390625 C7.64003906 3.00421875 6.92460937 3.6178125 6.1875 4.25 C5.47980469 4.85328125 4.77210938 5.4565625 4.04296875 6.078125 C1.94872491 7.92781627 1.94872491 7.92781627 0.42578125 10.171875 C-1 12 -1 12 -4 13 C-4.66 13.66 -5.32 14.32 -6 15 C-4.99667352 9.05925113 -3.69087294 4.79813482 0 0 Z " fill="#EE1A23" transform="translate(237,163)"/>
<path d="M0 0 C0 4.00529998 -1.92973711 5.92962683 -4.3125 8.9375 C-4.75674316 9.50654053 -5.20098633 10.07558105 -5.65869141 10.66186523 C-11.62654424 18.19817886 -18.1647521 25.24423173 -25 32 C-23.51131293 27.39860359 -21.25370145 24.49772906 -18 21 C-17.34 21 -16.68 21 -16 21 C-15.773125 20.484375 -15.54625 19.96875 -15.3125 19.4375 C-13.51782382 16.10452995 -11.50034985 12.85296329 -9 10 C-8.34 10 -7.68 10 -7 10 C-6.71125 9.4225 -6.4225 8.845 -6.125 8.25 C-5.568125 7.13625 -5.568125 7.13625 -5 6 C-4.690625 5.29875 -4.38125 4.5975 -4.0625 3.875 C-3 2 -3 2 0 0 Z " fill="#B90E14" transform="translate(297,216)"/>
<path d="M0 0 C0.66 0.33 1.32 0.66 2 1 C2 1.99 2 2.98 2 4 C2.66 4.33 3.32 4.66 4 5 C4.33 5.99 4.66 6.98 5 8 C5.99 8.66 6.98 9.32 8 10 C7.67 10.66 7.34 11.32 7 12 C6.030625 11.505 5.06125 11.01 4.0625 10.5 C-0.24136511 8.6717321 -4.38136001 8.15295213 -9 9 C-11.56990998 10.81264648 -11.56990998 10.81264648 -13 13 C-12.6875 10.625 -12.6875 10.625 -12 8 C-9.01839377 6.01226251 -7.43749015 5.58688856 -4 5 C-2.66457061 4.67516582 -1.33038449 4.3449145 0 4 C0 2.68 0 1.36 0 0 Z " fill="#D1111A" transform="translate(122,166)"/>
<path d="M0 0 C5.83779116 7.18497374 11.12647473 14.59719283 16.16796875 22.36328125 C17.67249313 24.5286415 19.1070703 26.19875066 21 28 C22.75 30.5625 22.75 30.5625 24 33 C23.67 33.66 23.34 34.32 23 35 C16.77472367 26.83000384 10.62483833 18.61437044 4.75 10.1875 C4.03396606 9.17526367 4.03396606 9.17526367 3.3034668 8.14257812 C0 3.35398809 0 3.35398809 0 0 Z " fill="#BA131D" transform="translate(222,224)"/>
<path d="M0 0 C7.85305307 3.24094253 14.34555131 12.50746197 18 20 C18 20.66 18 21.32 18 22 C17.34 22 16.68 22 16 22 C15.7525 21.38125 15.505 20.7625 15.25 20.125 C13.79371361 17.64931313 12.62187494 17.04874998 10 16 C10 15.01 10 14.02 10 13 C8.14589423 10.89586384 8.14589423 10.89586384 6 9 C4 7 4 7 2 4 C1.01 4 0.02 4 -1 4 C-0.67 2.68 -0.34 1.36 0 0 Z " fill="#C8121A" transform="translate(155,54)"/>
<path d="M0 0 C1.670625 0.061875 1.670625 0.061875 3.375 0.125 C3.375 0.455 3.375 0.785 3.375 1.125 C1.395 1.455 -0.585 1.785 -2.625 2.125 C-3.65329217 5.16516815 -3.924695 7.33836482 -2.77001953 10.36914062 C-1.47547279 12.91421236 -0.10720668 15.39758357 1.3125 17.875 C2.26234359 19.57632627 3.20912074 21.27936934 4.15234375 22.984375 C4.79030884 24.10537598 4.79030884 24.10537598 5.44116211 25.24902344 C6.375 27.125 6.375 27.125 6.375 29.125 C5.715 29.125 5.055 29.125 4.375 29.125 C3.715 27.805 3.055 26.485 2.375 25.125 C1.715 25.455 1.055 25.785 0.375 26.125 C0.436875 25.39796875 0.49875 24.6709375 0.5625 23.921875 C0.33561587 20.53752008 -0.68492122 19.12344493 -2.625 16.375 C-5.37645506 12.04016043 -6.24972912 9.03534623 -6.03125 3.9375 C-5.18724754 0.17195058 -3.66184594 0.12627055 0 0 Z " fill="#C1121E" transform="translate(122.625,138.875)"/>
<path d="M0 0 C4.20782635 4.69334478 7.45213641 10.24646076 10 16 C9.67 16.66 9.34 17.32 9 18 C6.5625 17.25 6.5625 17.25 4 16 C3.4375 14.0625 3.4375 14.0625 3 12 C1.02329393 10.24577228 1.02329393 10.24577228 -1 9 C-0.01 7.68 0.98 6.36 2 5 C1.34 5 0.68 5 0 5 C0 3.35 0 1.7 0 0 Z " fill="#D9151C" transform="translate(191,278)"/>
<path d="M0 0 C0.88429687 -0.02578125 1.76859375 -0.0515625 2.6796875 -0.078125 C5.125 0.25 5.125 0.25 6.8828125 1.453125 C8.54657407 3.85982413 8.97940538 5.30482879 9.125 8.25 C8.2924088 10.80744739 7.42622708 13.07644942 6.3125 15.5 C6.03857422 16.13679688 5.76464844 16.77359375 5.48242188 17.4296875 C3.40648496 22.10925752 3.40648496 22.10925752 1.125 23.25 C3.87147887 13.82042254 3.87147887 13.82042254 5.375 10.4375 C6.3200788 7.68102016 5.96693631 6.00542791 5.125 3.25 C3.96754513 1.88002255 3.96754513 1.88002255 0.8125 1.9375 C-2.92180193 1.90313703 -2.92180193 1.90313703 -5.3125 4.25 C-5.828125 4.91 -6.34375 5.57 -6.875 6.25 C-5.88574842 0.7384555 -5.64958115 0.09825359 0 0 Z " fill="#BD141F" transform="translate(233.875,111.75)"/>
<path d="M0 0 C2.59272897 2.33421641 4.0458592 4.75029897 5.6875 7.8125 C10.08703184 15.29388212 16.53607676 18.95704158 24 23 C21 24 21 24 17.8125 22.4375 C16.5343164 21.63661281 15.2638755 20.82328145 14 20 C13.33226562 19.60941406 12.66453125 19.21882813 11.9765625 18.81640625 C5.57912492 14.68625977 2.75589159 8.97324085 0 2 C0 1.34 0 0.68 0 0 Z " fill="#BB131D" transform="translate(124,203)"/>
<path d="M0 0 C0 0.66 0 1.32 0 2 C-1.08667969 2.56267578 -1.08667969 2.56267578 -2.1953125 3.13671875 C-8.9435881 6.70880597 -14.22218492 10.22218492 -19.625 15.625 C-21.65550064 17.65550064 -23.65795003 19.35189077 -26 21 C-24.63055898 18.05043472 -23.12169591 15.47531189 -21 13 C-20.34 13 -19.68 13 -19 13 C-19 12.34 -19 11.68 -19 11 C-16.94677142 9.40963798 -14.90299994 7.94301709 -12.75 6.5 C-12.16347656 6.09652344 -11.57695312 5.69304688 -10.97265625 5.27734375 C-3.2221019 0 -3.2221019 0 0 0 Z " fill="#BC1921" transform="translate(221,44)"/>
<path d="M0 0 C0.33 0.66 0.66 1.32 1 2 C2.81296615 2.62092718 2.81296615 2.62092718 5 3 C5.9075 3.185625 6.815 3.37125 7.75 3.5625 C8.4925 3.706875 9.235 3.85125 10 4 C8.35 5.98 6.7 7.96 5 10 C1.64379729 8.61122646 -0.07298728 7.08322035 -2 4 C-2 3.34 -2 2.68 -2 2 C-1.34 2 -0.68 2 0 2 C0 1.34 0 0.68 0 0 Z " fill="#CF141C" transform="translate(248,257)"/>
<path d="M0 0 C1.37095624 3.69037278 0.60010967 5.70883835 -0.9375 9.25 C-1.31777344 10.14203125 -1.69804687 11.0340625 -2.08984375 11.953125 C-2.54037109 12.96632812 -2.54037109 12.96632812 -3 14 C-1.35 14.33 0.3 14.66 2 15 C2 16.32 2 17.64 2 19 C-1.63 19 -5.26 19 -9 19 C-8.443125 18.278125 -7.88625 17.55625 -7.3125 16.8125 C-3.87292231 11.72093876 -2.07766877 5.73913422 0 0 Z " fill="#D4141D" transform="translate(234,135)"/>
<path d="M0 0 C0.65234375 1.7734375 0.65234375 1.7734375 1 4 C0.00390625 5.8515625 0.00390625 5.8515625 -1.4375 7.625 C-3.52963362 10.01284856 -3.52963362 10.01284856 -4 13 C-2.27398621 13.81917642 -0.5440353 14.63006016 1.1875 15.4375 C2.15042969 15.88996094 3.11335937 16.34242188 4.10546875 16.80859375 C6.76631586 17.90381422 9.16784755 18.54954796 12 19 C12 19.33 12 19.66 12 20 C4.55314032 20.82742885 -0.06282433 18.46734855 -6 14 C-6.33 13.34 -6.66 12.68 -7 12 C-5.56640625 9.1796875 -5.56640625 9.1796875 -3.5625 5.875 C-2.57443359 4.23144531 -2.57443359 4.23144531 -1.56640625 2.5546875 C-1.04949219 1.71164062 -0.53257812 0.86859375 0 0 Z " fill="#B91114" transform="translate(172,294)"/>
<path d="M0 0 C1.11199708 3.33599124 0.85048737 3.77593023 0 7 C-0.22117559 9.4138176 -0.40572242 11.83114597 -0.5625 14.25 C-0.64628906 15.51328125 -0.73007813 16.7765625 -0.81640625 18.078125 C-0.87699219 19.04234375 -0.93757812 20.0065625 -1 21 C-2.98 21.33 -4.96 21.66 -7 22 C-7 21.34 -7 20.68 -7 20 C-5.68 20 -4.36 20 -3 20 C-3.02320313 19.13117188 -3.04640625 18.26234375 -3.0703125 17.3671875 C-3.08835938 16.21476562 -3.10640625 15.06234375 -3.125 13.875 C-3.14820313 12.73804688 -3.17140625 11.60109375 -3.1953125 10.4296875 C-2.99207867 6.86090138 -2.66281067 2.66281067 0 0 Z " fill="#E90E16" transform="translate(172,133)"/>
<path d="M0 0 C1.5625 1.25 1.5625 1.25 3 3 C2.76464416 5.60490927 2.38316261 6.67989091 0.35766602 8.37207031 C-0.33657471 8.77006836 -1.03081543 9.16806641 -1.74609375 9.578125 C-2.50083984 10.01640625 -3.25558594 10.4546875 -4.03320312 10.90625 C-4.82662109 11.3496875 -5.62003906 11.793125 -6.4375 12.25 C-7.22705078 12.70890625 -8.01660156 13.1678125 -8.83007812 13.640625 C-14.69398717 17 -14.69398717 17 -17 17 C-17 16.34 -17 15.68 -17 15 C-12.57758478 11.54204767 -4.63878491 6 1 6 C0.67 4.02 0.34 2.04 0 0 Z " fill="#B71018" transform="translate(201,296)"/>
<path d="M0 0 C4.26866909 0.47429657 6.10933148 3.03521178 9 6 C9.99 6.33 10.98 6.66 12 7 C12.144375 7.639375 12.28875 8.27875 12.4375 8.9375 C12.80104993 11.20311706 12.80104993 11.20311706 15.0625 12.25 C15.701875 12.4975 16.34125 12.745 17 13 C17 13.66 17 14.32 17 15 C17.66 15 18.32 15 19 15 C18.67 15.66 18.34 16.32 18 17 C4.71119357 6.4025974 4.71119357 6.4025974 0 1 C0 0.67 0 0.34 0 0 Z " fill="#C41619" transform="translate(91,251)"/>
<path d="M0 0 C0.804375 1.051875 0.804375 1.051875 1.625 2.125 C3.43743444 4.31899959 5.1994239 6.18132597 7.25 8.125 C10 11 10 11 10 14 C5.95579349 12.22054913 2.53921513 9.60470327 -1 7 C-0.67 4.69 -0.34 2.38 0 0 Z " fill="#D00F18" transform="translate(131,172)"/>
<path d="M0 0 C3.52816195 4.2589955 6.64059285 8.74632336 9.75 13.3125 C10.25660156 14.05306641 10.76320313 14.79363281 11.28515625 15.55664062 C12.52519457 17.36990421 13.76342265 19.18437521 15 21 C14.67 21.66 14.34 22.32 14 23 C12.99421411 21.71283353 11.99553202 20.42011342 11 19.125 C10.443125 18.40570313 9.88625 17.68640625 9.3125 16.9453125 C8 15 8 15 8 13 C7.34 13 6.68 13 6 13 C4.97388051 11.34928604 3.97691857 9.68029994 3 8 C2.443125 7.505 1.88625 7.01 1.3125 6.5 C0 5 0 5 -0.1875 2.3125 C-0.125625 1.549375 -0.06375 0.78625 0 0 Z " fill="#BD111D" transform="translate(109,180)"/>
<path d="M0 0 C0.66 0 1.32 0 2 0 C0.55797524 4.15151338 -1.5010438 7.29978445 -4.125 10.8125 C-5.21167969 12.27623047 -5.21167969 12.27623047 -6.3203125 13.76953125 C-6.87460938 14.50558594 -7.42890625 15.24164063 -8 16 C-9.875 15.6875 -9.875 15.6875 -12 15 C-12.66 14.01 -13.32 13.02 -14 12 C-11.525 12.495 -11.525 12.495 -9 13 C-7.68568828 11.20966193 -6.3736047 9.41768797 -5.0625 7.625 C-4.33160156 6.62726563 -3.60070312 5.62953125 -2.84765625 4.6015625 C-1.0220431 2.17182891 -1.0220431 2.17182891 0 0 Z " fill="#B20F12" transform="translate(124,256)"/>
<path d="M0 0 C0 0.99 0 1.98 0 3 C1.32 3.33 2.64 3.66 4 4 C3.67 4.99 3.34 5.98 3 7 C2.01 7 1.02 7 0 7 C0 6.34 0 5.68 0 5 C-3.53372712 6.96318174 -6.24479785 9.04070881 -9 12 C-9.33 11.34 -9.66 10.68 -10 10 C-8.625 8 -8.625 8 -7 6 C-6.34 6 -5.68 6 -5 6 C-5 5.34 -5 4.68 -5 4 C-3.37373596 2.61767557 -1.7074998 1.28062485 0 0 Z " fill="#D51A20" transform="translate(256,178)"/>
<path d="M0 0 C0.66 0 1.32 0 2 0 C0.18633597 4.12764916 -2.49146618 7.62059205 -5.125 11.25 C-5.59292969 11.8996875 -6.06085938 12.549375 -6.54296875 13.21875 C-7.69274282 14.81435483 -8.84602566 16.40743025 -10 18 C-10.66 17.01 -11.32 16.02 -12 15 C-11.01 15 -10.02 15 -9 15 C-8.814375 14.195625 -8.62875 13.39125 -8.4375 12.5625 C-6.49056008 7.73747498 -3.56651891 3.78522054 0 0 Z " fill="#BF0F11" transform="translate(137,238)"/>
<path d="M0 0 C0.66 1.32 1.32 2.64 2 4 C2.66 3.34 3.32 2.68 4 2 C4 5 4 8 4 11 C4.2981424 12.34164079 4.62243192 13.67851173 5 15 C4.01 15.495 4.01 15.495 3 16 C-1.24404762 6.2202381 -1.24404762 6.2202381 0 0 Z " fill="#E4171C" transform="translate(105,175)"/>
<path d="M0 0 C7.91246736 0.40232885 14.84444032 2.58194248 22 6 C22.33 6.66 22.66 7.32 23 8 C19.49374747 7.39590321 16.45452631 6.46114616 13.1875 5.0625 C8.83123122 3.26643716 4.59600462 2.02133436 0 1 C0 0.67 0 0.34 0 0 Z " fill="#BB141B" transform="translate(262,39)"/>
<path d="M0 0 C0.66 0 1.32 0 2 0 C3.73176656 3.46353311 3.4845156 7.21312806 3 11 C1.0625 14.375 1.0625 14.375 -1 17 C-1.33 17.99 -1.66 18.98 -2 20 C-2.66 20 -3.32 20 -4 20 C-2 14 -2 14 -1.1640625 11.7734375 C0.98763227 5.99484184 0.98763227 5.99484184 0 0 Z " fill="#BE191D" transform="translate(234,154)"/>
<path d="M0 0 C0.33 0 0.66 0 1 0 C1.5064814 2.70726366 2.005351 5.41557124 2.5 8.125 C2.64308594 8.88554688 2.78617188 9.64609375 2.93359375 10.4296875 C3.70312456 14.68042914 4.16644376 18.65859197 4 23 C3.34 22.67 2.68 22.34 2 22 C1.62109375 19.96875 1.62109375 19.96875 1.4375 17.5 C1.4207737 14.45018475 1.4207737 14.45018475 0 12 C-0.07244053 9.98035801 -0.08377188 7.95832876 -0.0625 5.9375 C-0.05347656 4.83277344 -0.04445312 3.72804688 -0.03515625 2.58984375 C-0.02355469 1.73519531 -0.01195312 0.88054687 0 0 Z " fill="#BB1724" transform="translate(151,114)"/>
<path d="M0 0 C1.26589778 3.63945612 0.73429308 6.38928394 0 10.125 C-1.02273046 14.18676557 -1.02273046 14.18676557 0 18 C-1.32 17.34 -2.64 16.68 -4 16 C-3.6083965 10.04492601 -2.62875405 5.37180176 0 0 Z " fill="#C5131C" transform="translate(188,111)"/>
<path d="M0 0 C0.99 0.33 1.98 0.66 3 1 C1.42301238 2.63115895 -0.16184366 4.25471333 -1.75 5.875 C-2.63171875 6.77992188 -3.5134375 7.68484375 -4.421875 8.6171875 C-6.61636684 10.64542996 -8.2667136 11.88880413 -11 13 C-10.67 12.01 -10.34 11.02 -10 10 C-9.34 10 -8.68 10 -8 10 C-7.34 8.68 -6.68 7.36 -6 6 C-5.34 6 -4.68 6 -4 6 C-3.34 4.68 -2.68 3.36 -2 2 C-1.34 2 -0.68 2 0 2 C0 1.34 0 0.68 0 0 Z " fill="#C10C13" transform="translate(269,248)"/>
<path d="M0 0 C0.66 0 1.32 0 2 0 C0.51364884 4.21654356 -1.61249159 7.62478605 -4.125 11.3125 C-4.84945312 12.38113281 -5.57390625 13.44976562 -6.3203125 14.55078125 C-7.15175781 15.76314453 -7.15175781 15.76314453 -8 17 C-9 14 -9 14 -7.85546875 11.51953125 C-7.30503906 10.62621094 -6.75460938 9.73289062 -6.1875 8.8125 C-5.37345703 7.46091797 -5.37345703 7.46091797 -4.54296875 6.08203125 C-4.03378906 5.39496094 -3.52460938 4.70789063 -3 4 C-2.34 4 -1.68 4 -1 4 C-0.67 2.68 -0.34 1.36 0 0 Z " fill="#BA121E" transform="translate(225,118)"/>
<path d="M0 0 C4.40035907 1.3038101 7.96040185 3.01273553 11.8125 5.5 C12.76769531 6.1084375 13.72289062 6.716875 14.70703125 7.34375 C17 9 17 9 18 11 C12.94494583 9.70383226 9.25426176 7.30914173 5.05078125 4.33984375 C2.94610157 2.84084175 2.94610157 2.84084175 0 2 C0 1.34 0 0.68 0 0 Z " fill="#BD131E" transform="translate(137,43)"/>
<path d="M0 0 C1.875 0.6875 1.875 0.6875 4 2 C5.0625 4.375 5.0625 4.375 6 7 C6.99387334 8.33790641 7.9926892 9.67218122 9 11 C9 11.66 9 12.32 9 13 C5.34646845 11.56356879 4.06021834 9.94164969 2.25 6.5 C1.82203125 5.7059375 1.3940625 4.911875 0.953125 4.09375 C0 2 0 2 0 0 Z " fill="#C81118" transform="translate(49,195)"/>
<path d="M0 0 C1.98 0 3.96 0 6 0 C6.66 1.65 7.32 3.3 8 5 C7.34 5 6.68 5 6 5 C6.33 6.32 6.66 7.64 7 9 C4.04070881 6.24479785 1.96318174 3.53372712 0 0 Z " fill="#C30F14" transform="translate(165,242)"/>
<path d="M0 0 C0.66 0 1.32 0 2 0 C2 2.64 2 5.28 2 8 C3.32 8 4.64 8 6 8 C6 8.66 6 9.32 6 10 C4.125 10.625 4.125 10.625 2 11 C0 9 0 9 -0.1953125 6.8359375 C-0.17210937 6.02382812 -0.14890625 5.21171875 -0.125 4.375 C-0.10695312 3.55773437 -0.08890625 2.74046875 -0.0703125 1.8984375 C-0.04710937 1.27195313 -0.02390625 0.64546875 0 0 Z " fill="#EE111A" transform="translate(189,142)"/>
<path d="M0 0 C3.09592835 3.5087188 4.74194623 6.49197399 6 11 C5.34 11 4.68 11 4 11 C3.67 10.34 3.34 9.68 3 9 C1.68 9.33 0.36 9.66 -1 10 C-0.01 8.35 0.98 6.7 2 5 C1.34 5 0.68 5 0 5 C0 3.35 0 1.7 0 0 Z " fill="#C7161E" transform="translate(191,278)"/>
<path d="M0 0 C0.66 0 1.32 0 2 0 C3.44074715 1.782129 4.80510649 3.62660276 6.125 5.5 C7.21167969 7.03140625 7.21167969 7.03140625 8.3203125 8.59375 C8.87460938 9.3878125 9.42890625 10.181875 10 11 C9.67 11.66 9.34 12.32 9 13 C7.66072279 11.54712339 6.32873153 10.08752741 5 8.625 C3.88625 7.40683594 3.88625 7.40683594 2.75 6.1640625 C1 4 1 4 1 2 C0.34 1.67 -0.32 1.34 -1 1 C-0.67 0.67 -0.34 0.34 0 0 Z " fill="#C11118" transform="translate(127,139)"/>
<path d="M0 0 C1.32 0 2.64 0 4 0 C4 2.97 4 5.94 4 9 C2.35 8.67 0.7 8.34 -1 8 C-0.01 6.02 0.98 4.04 2 2 C1.34 1.34 0.68 0.68 0 0 Z " fill="#E8141C" transform="translate(145,100)"/>
<path d="M0 0 C0.66 0.33 1.32 0.66 2 1 C-1.49359465 4.59634744 -5.11098131 7.83451967 -9 11 C-7.63055898 8.05043472 -6.12169591 5.47531189 -4 3 C-3.34 3 -2.68 3 -2 3 C-2 2.34 -2 1.68 -2 1 C-1.34 0.67 -0.68 0.34 0 0 Z " fill="#C01417" transform="translate(204,54)"/>
<path d="M0 0 C0.99 0.33 1.98 0.66 3 1 C2.16855469 1.72316406 2.16855469 1.72316406 1.3203125 2.4609375 C0.59585938 3.09257812 -0.12859375 3.72421875 -0.875 4.375 C-1.59429687 5.00148437 -2.31359375 5.62796875 -3.0546875 6.2734375 C-4.4076598 7.47426834 -5.7208345 8.7208345 -7 10 C-7 6 -7 6 -5.57421875 4.26171875 C-4.64029297 3.48248047 -4.64029297 3.48248047 -3.6875 2.6875 C-2.76517578 1.88892578 -2.76517578 1.88892578 -1.82421875 1.07421875 C-0.92123047 0.54248047 -0.92123047 0.54248047 0 0 Z " fill="#B7111B" transform="translate(244,163)"/>
<path d="M0 0 C2.5 1.1875 2.5 1.1875 5 3 C5.3125 5.6875 5.3125 5.6875 5 8 C4.01 8 3.02 8 2 8 C1.34 5.36 0.68 2.72 0 0 Z " fill="#D71319" transform="translate(170,245)"/>
<path d="M0 0 C1.65 0 3.3 0 5 0 C4.6875 1.9375 4.6875 1.9375 4 4 C3.01 4.33 2.02 4.66 1 5 C0.34 5.66 -0.32 6.32 -1 7 C-0.67 4.69 -0.34 2.38 0 0 Z " fill="#DF151F" transform="translate(232,171)"/>
<path d="M0 0 C0.66 0 1.32 0 2 0 C2.55827609 1.26362492 3.09612097 2.5362919 3.625 3.8125 C3.92664063 4.52019531 4.22828125 5.22789063 4.5390625 5.95703125 C4.69117188 6.63121094 4.84328125 7.30539063 5 8 C4.01 9.485 4.01 9.485 3 11 C2.49384702 9.73160474 1.99530901 8.46016898 1.5 7.1875 C1.2215625 6.47980469 0.943125 5.77210937 0.65625 5.04296875 C0 3 0 3 0 0 Z " fill="#C21523" transform="translate(167,118)"/>
<path d="M0 0 C0.99 0.33 1.98 0.66 3 1 C3 2.32 3 3.64 3 5 C2.34 5 1.68 5 1 5 C0.67 6.65 0.34 8.3 0 10 C-0.33 10 -0.66 10 -1 10 C-0.67 6.7 -0.34 3.4 0 0 Z " fill="#D50F19" transform="translate(229,174)"/>
<path d="M0 0 C0.66 0.33 1.32 0.66 2 1 C2 3.97 2 6.94 2 10 C1.34 10 0.68 10 0 10 C-0.19412181 8.52168779 -0.38012131 7.04230684 -0.5625 5.5625 C-0.66691406 4.73878906 -0.77132812 3.91507813 -0.87890625 3.06640625 C-0.91886719 2.38449219 -0.95882812 1.70257813 -1 1 C-0.67 0.67 -0.34 0.34 0 0 Z " fill="#DF1222" transform="translate(188,131)"/>
<path d="M0 0 C1.9375 0.375 1.9375 0.375 4 1 C5.26237731 3.52475462 5.09856404 5.31200466 5.0625 8.125 C5.05347656 9.03507812 5.04445312 9.94515625 5.03515625 10.8828125 C5.02355469 11.58148438 5.01195312 12.28015625 5 13 C4.67 13 4.34 13 4 13 C3.87882813 12.31292969 3.75765625 11.62585938 3.6328125 10.91796875 C3.46523437 10.01691406 3.29765625 9.11585937 3.125 8.1875 C2.96257812 7.29417969 2.80015625 6.40085937 2.6328125 5.48046875 C2.08811551 2.77272154 2.08811551 2.77272154 0 0 Z " fill="#CC1823" transform="translate(202,92)"/>
<path d="M0 0 C2.3125 0.1875 2.3125 0.1875 4 1 C2.02579865 3.52259061 1.03254358 3.9929808 -2.1875 4.6875 C-3.5796875 4.8421875 -3.5796875 4.8421875 -5 5 C-2.75 2.4375 -2.75 2.4375 0 0 Z " fill="#D3121D" transform="translate(65,52)"/>
<path d="M0 0 C0.66 0 1.32 0 2 0 C0.55746343 3.36591866 -1.33264727 5.51047079 -4 8 C-4.33 7.34 -4.66 6.68 -5 6 C-3.625 4 -3.625 4 -2 2 C-1.34 2 -0.68 2 0 2 C0 1.34 0 0.68 0 0 Z " fill="#CA090F" transform="translate(251,182)"/>
<path d="M0 0 C2.31 0.66 4.62 1.32 7 2 C7 2.33 7 2.66 7 3 C5.329375 3.2165625 5.329375 3.2165625 3.625 3.4375 C0.17857953 3.78372035 0.17857953 3.78372035 -2 5 C-1.34 3.35 -0.68 1.7 0 0 Z " fill="#CB0C1E" transform="translate(195,89)"/>
<path d="M0 0 C0.625 1.875 0.625 1.875 1 4 C0.34 4.66 -0.32 5.32 -1 6 C-1.99 6 -2.98 6 -4 6 C-4.33 5.01 -4.66 4.02 -5 3 C-3.35 2.01 -1.7 1.02 0 0 Z " fill="#D51516" transform="translate(235,199)"/>
<path d="M0 0 C0.99 0.33 1.98 0.66 3 1 C2.67 2.65 2.34 4.3 2 6 C1.34 6 0.68 6 0 6 C-0.33 6.66 -0.66 7.32 -1 8 C-0.67 5.36 -0.34 2.72 0 0 Z " fill="#D1131E" transform="translate(36,88)"/>
<path d="M0 0 C-1.25125384 3.75376152 -2.5652404 4.24073289 -6 6 C-6.66 6 -7.32 6 -8 6 C-8 5.34 -8 4.68 -8 4 C-2.58823529 0 -2.58823529 0 0 0 Z " fill="#BF0F0F" transform="translate(192,307)"/>
<path d="M0 0 C2.4375 0.8125 2.4375 0.8125 5 2 C5.33 2.99 5.66 3.98 6 5 C6.66 5 7.32 5 8 5 C7.67 5.66 7.34 6.32 7 7 C5.83040013 6.02433888 4.66438823 5.044375 3.5 4.0625 C2.8503125 3.51722656 2.200625 2.97195313 1.53125 2.41015625 C1.0259375 1.94480469 0.520625 1.47945313 0 1 C0 0.67 0 0.34 0 0 Z " fill="#B61111" transform="translate(102,261)"/>
<path d="M0 0 C1.5 1.1875 1.5 1.1875 3 3 C3.1875 5.6875 3.1875 5.6875 3 8 C2.34 8 1.68 8 1 8 C0.67 5.36 0.34 2.72 0 0 Z " fill="#E10913" transform="translate(147,169)"/>
<path d="" fill="#FFFFFF" transform="translate(0,0)"/>
<path d="" fill="#FFFFFF" transform="translate(0,0)"/>
<path d="" fill="#FFFFFF" transform="translate(0,0)"/>
<path d="" fill="#FFFFFF" transform="translate(0,0)"/>
<path d="" fill="#FFFFFF" transform="translate(0,0)"/>
<path d="" fill="#FFFFFF" transform="translate(0,0)"/>
<path d="" fill="#FFFFFF" transform="translate(0,0)"/>
<path d="" fill="#FFFFFF" transform="translate(0,0)"/>
<path d="" fill="#FFFFFF" transform="translate(0,0)"/>
<path d="" fill="#FFFFFF" transform="translate(0,0)"/>
<path d="" fill="#FFFFFF" transform="translate(0,0)"/>
<path d="" fill="#FFFFFF" transform="translate(0,0)"/>
<path d="" fill="#FFFFFF" transform="translate(0,0)"/>
<path d="" fill="#FFFFFF" transform="translate(0,0)"/>
<path d="" fill="#FFFFFF" transform="translate(0,0)"/>
<path d="" fill="#FFFFFF" transform="translate(0,0)"/>
<path d="" fill="#FFFFFF" transform="translate(0,0)"/>
<path d="" fill="#00FFFF" transform="translate(0,0)"/>
<path d="" fill="#FFFFFF" transform="translate(0,0)"/>
<path d="" fill="#FFFFFF" transform="translate(0,0)"/>
<path d="" fill="#FFFFFF" transform="translate(0,0)"/>
<path d="" fill="#FFFFFF" transform="translate(0,0)"/>
<path d="" fill="#FFFFFF" transform="translate(0,0)"/>
<path d="" fill="#FFFFFF" transform="translate(0,0)"/>
<path d="" fill="#FFFFFF" transform="translate(0,0)"/>
<path d="" fill="#FFFFFF" transform="translate(0,0)"/>
<path d="" fill="#FFFFFF" transform="translate(0,0)"/>
<path d="" fill="#FFFFFF" transform="translate(0,0)"/>
<path d="" fill="#FFFFFF" transform="translate(0,0)"/>
<path d="" fill="#FFFFFF" transform="translate(0,0)"/>
<path d="" fill="#FFFFFF" transform="translate(0,0)"/>
<path d="" fill="#FFFFFF" transform="translate(0,0)"/>
<path d="" fill="#FFFFFF" transform="translate(0,0)"/>
<path d="" fill="#FFFFFF" transform="translate(0,0)"/>
<path d="" fill="#FFFFFF" transform="translate(0,0)"/>
<path d="" fill="#FFFFFF" transform="translate(0,0)"/>
<path d="" fill="#FFFFFF" transform="translate(0,0)"/>
<path d="" fill="#FFFFFF" transform="translate(0,0)"/>
<path d="" fill="#FFFFFF" transform="translate(0,0)"/>
<path d="" fill="#FFFFFF" transform="translate(0,0)"/>
<path d="" fill="#FFFFFF" transform="translate(0,0)"/>
<path d="" fill="#FFFFFF" transform="translate(0,0)"/>
<path d="" fill="#FFFFFF" transform="translate(0,0)"/>
<path d="" fill="#FFFFFF" transform="translate(0,0)"/>
<path d="" fill="#FFFFFF" transform="translate(0,0)"/>
<path d="" fill="#FFFFFF" transform="translate(0,0)"/>
<path d="" fill="#FFFFFF" transform="translate(0,0)"/>
<path d="" fill="#FFFFFF" transform="translate(0,0)"/>
<path d="" fill="#FFFFFF" transform="translate(0,0)"/>
<path d="" fill="#FFFFFF" transform="translate(0,0)"/>
<path d="" fill="#FFFFFF" transform="translate(0,0)"/>
<path d="" fill="#FFFFFF" transform="translate(0,0)"/>
<path d="" fill="#FFFFFF" transform="translate(0,0)"/>
</svg>
