<?xml version="1.0" standalone="no"?>
<!DOCTYPE svg PUBLIC "-//W3C//DTD SVG 20010904//EN"
 "http://www.w3.org/TR/2001/REC-SVG-20010904/DTD/svg10.dtd">
<svg version="1.0" xmlns="http://www.w3.org/2000/svg"
 width="512.000000pt" height="512.000000pt" viewBox="0 0 512.000000 512.000000"
 preserveAspectRatio="xMidYMid meet">

<g transform="translate(0.000000,512.000000) scale(0.100000,-0.100000)"
fill="#000000" stroke="none">
<path d="M1175 5109 c-553 -42 -1006 -491 -1135 -1127 -42 -209 -43 -495 -1
-695 79 -376 296 -758 670 -1177 41 -47 174 -185 295 -307 l219 -223 31 24
c41 31 95 58 129 65 l27 6 -207 425 -208 425 0 76 c0 66 4 81 28 117 82 125
258 138 354 27 24 -27 86 -144 163 -305 l125 -261 5 153 c6 171 17 207 84 265
l34 31 -89 418 c-102 477 -105 511 -53 586 97 141 321 124 388 -30 9 -21 54
-219 101 -442 48 -223 88 -415 91 -427 6 -20 7 -21 42 -6 44 18 123 14 170 -9
l32 -16 0 506 c0 570 -2 552 76 623 124 111 327 47 364 -117 5 -21 10 -280 10
-575 0 -532 0 -536 21 -555 37 -33 59 -91 66 -169 l6 -75 17 28 c10 16 30 38
46 51 16 12 39 30 51 39 12 10 89 162 178 352 85 184 166 351 180 371 29 45
113 89 169 89 133 0 230 -95 230 -225 0 -57 -11 -83 -217 -528 l-217 -467 0
-230 0 -230 228 0 229 0 224 228 c123 125 265 274 315 332 432 499 633 909
663 1352 47 702 -301 1328 -853 1536 -142 54 -248 72 -417 73 -308 0 -559 -88
-814 -286 -154 -120 -325 -319 -417 -487 -24 -43 -45 -77 -48 -77 -3 0 -24 34
-48 77 -93 168 -263 366 -419 489 -205 160 -459 264 -678 279 -44 2 -93 6
-110 7 -16 2 -75 0 -130 -4z"/>
</g>
</svg>
